<svg xmlns="http://www.w3.org/2000/svg" xmlns:xlink="http://www.w3.org/1999/xlink" fill="none" viewBox="0 0 3840 900">
  <defs>
    <path id="reuse-0" fill="#fff" d="M0 0h3840v900H0z"/>
  </defs>
  <g clip-path="url(#a)">
    <use xlink:href="#reuse-0"/>
    <path fill="#00334F" d="M0-59h1728v963H0z"/>
    <path stroke="#00E0FF" stroke-miterlimit="10" stroke-opacity=".35" stroke-width=".5" d="M1727.38-58.32c.29 320.607.29 641.214 0 961.821-575.61-.133-1151.213-.133-1726.82 0 .027-320.607.027-641.214 0-961.822 575.607-.499 1151.21.62 1726.82 0Z"/>
    <path stroke="#00E0FF" stroke-miterlimit="10" stroke-opacity=".35" stroke-width=".5" d="M23.263-58.342c-6.455 320.568.92 641.215 0 961.842M46.029-58.361c-11.872 320.447 1.559 641.254 0 961.861M68.693-58.38c-4.117 81.27-12.671 163.957-9.314 245.307 3.398 79.712 9.154 159.744 10.193 239.617.94 72.564-7.994 144.788-2.978 217.392 6.096 87.081 2.678 172.444 2.119 259.585M91.418-58.38C86.582 21.49 76.568 103.06 80.566 183.012 84.563 264.882 91.918 347.151 92.857 429c.84 71.426-11.112 142.332-4.436 213.838 8.174 87.859 3.657 172.624 3.017 260.643M114.142-58.4c-5.296 79.033-16.149 160.064-11.732 239.197 4.577 83.347 13.131 167.612 13.811 251.079.579 70.147-14.251 139.556-5.996 209.804 10.353 88.618 4.696 172.764 3.997 261.761M136.866-58.4c-5.476 78.754-16.648 159.744-11.991 238.538 4.836 84.525 14.49 170.388 14.77 254.912.219 68.79-17.429 136.662-7.715 205.672 12.631 89.496 5.736 172.763 4.956 262.819M159.571-58.4c-5.436 78.953-16.608 160.064-11.871 239.197 5.076 85.204 15.609 172.145 15.369 257.588-.2 67.452-20.606 133.786-9.354 201.438 7.235 43.491 15.01 82.927 13.111 127.496-1.998 45.527-6.795 90.675-7.235 136.302M182.295-58.4c-5.216 79.552-15.989 161.162-11.312 240.834 5.116 85.504 16.329 173.223 15.469 258.847-.659 66.194-23.703 131.29-10.912 197.683 8.394 43.651 17.168 82.169 14.99 127.277-2.219 45.926-7.735 91.254-8.215 137.24M205.02-58.38c-4.857 80.43-15.09 162.819-10.393 243.35 4.997 85.443 16.649 173.562 15.17 259.126-1.12 65.095-26.722 129.213-12.352 194.469 9.633 43.81 19.307 81.29 16.828 126.937-2.498 46.146-8.694 91.673-9.233 137.939"/>
    <path stroke="#00E0FF" stroke-miterlimit="10" stroke-opacity=".35" stroke-width=".5" d="M227.745-58.38c-4.357 81.589-13.811 164.915-9.234 246.545 4.797 85.044 16.629 173.163 14.53 258.287-1.579 64.277-29.599 127.795-13.59 192.212 10.932 43.93 21.465 80.232 18.667 126.418-2.798 46.186-9.733 91.853-10.353 138.359"/>
    <path stroke="#00E0FF" stroke-miterlimit="10" stroke-opacity=".35" stroke-width=".5" d="M250.469-58.38c-3.777 82.887-12.271 167.272-7.874 250.179 4.457 84.365 16.189 172.045 13.57 256.45-1.998 63.738-32.337 127.316-14.55 191.114 12.232 43.93 23.604 78.974 20.406 125.679-3.157 46.366-10.812 91.853-11.532 138.399"/>
    <path stroke="#00E0FF" stroke-miterlimit="10" stroke-opacity=".35" stroke-width=".5" d="M273.193-58.361c-3.138 84.265-10.533 169.728-6.436 254.033 3.998 83.407 15.39 170.208 12.352 253.595-2.299 63.638-34.836 127.915-15.15 191.454 13.571 43.77 25.723 77.536 22.105 124.7-3.577 46.266-11.992 91.434-12.871 138"/>
    <path stroke="#00E0FF" stroke-miterlimit="10" stroke-opacity=".35" stroke-width=".5" d="M295.858-58.361c-2.478 85.663-8.714 172.264-4.956 257.907 3.577 82.209 14.19 167.732 10.912 249.901-2.558 64.017-37.114 129.792-15.349 193.51 14.87 43.531 27.821 75.879 23.684 123.383-3.998 46.026-13.211 90.735-14.291 137.101"/>
    <path stroke="#00E0FF" stroke-miterlimit="10" stroke-opacity=".35" stroke-width=".5" d="M318.643-58.342c-1.859 86.961-6.855 174.621-3.558 261.582 3.078 80.791 12.652 164.517 9.294 245.288-2.678 64.996-39.093 133.207-15.07 197.544 16.149 43.211 29.98 73.882 25.223 121.805-4.497 45.587-14.57 89.597-15.889 135.603"/>
    <path stroke="#00E0FF" stroke-miterlimit="10" stroke-opacity=".35" stroke-width=".5" d="M341.368-58.342c-1.259 88.14-5.037 176.738-2.259 264.857 2.479 79.173 10.773 160.743 7.535 239.876-2.738 66.614-40.792 138.339-14.27 203.874 17.308 42.712 31.978 71.705 26.642 119.808-5.077 44.929-15.989 87.98-17.648 133.427"/>
    <path stroke="#00E0FF" stroke-miterlimit="10" stroke-opacity=".35" stroke-width=".5" d="M364.091-58.342c-.74 89.098-3.358 178.435-1.199 267.572 1.878 77.317 8.674 156.43 5.696 233.627-2.658 68.969-42.112 145.407-12.831 212.72 18.307 42.092 34.196 69.209 27.98 117.332-5.716 44.05-17.628 85.863-19.606 130.531"/>
    <path stroke="#00E0FF" stroke-miterlimit="10" stroke-opacity=".35" stroke-width=".5" d="M386.815-58.32c-.34 89.736-1.899 179.573-.4 269.309 1.24 75.02 7.415 151.917 3.778 226.837-3.478 71.606-42.771 155.232-10.733 224.381 19.167 41.314 36.355 66.434 29.12 114.437-6.455 42.912-19.366 83.148-21.765 126.818"/>
    <path stroke="#00E0FF" stroke-miterlimit="10" stroke-opacity=".35" stroke-width=".5" d="M409.54-58.32c-.16 162.5 8.734 327.117 1.879 489.397-3.198 75.599-43.251 166.853-7.875 239.118 19.987 40.675 38.074 63.159 30.18 111.062-6.856 41.534-21.266 79.872-24.184 122.225"/>
    <path stroke="#00E0FF" stroke-miterlimit="10" stroke-opacity=".35" stroke-width=".5" d="M432.266-58.32c0 159.924 5.576 320.966 0 480.791-2.819 80.491-43.291 181.01-4.258 257.209 20.387 39.796 39.813 59.644 31.039 107.148-7.375 39.936-23.284 75.699-26.781 116.674"/>
    <path stroke="#00E0FF" stroke-miterlimit="10" stroke-opacity=".35" stroke-width=".5" d="M454.989-58.32c1.159 156.67 4.157 314.597-.48 471.246-2.578 86.302-42.731 191.394-4.757 274.182 17.848 38.997 37.974 59.245 29.84 104.832-6.715 38.119-21.505 72.404-24.503 111.582"/>
    <path stroke="#00E0FF" stroke-miterlimit="10" stroke-opacity=".35" stroke-width=".5" d="M477.733-58.32c1.719 153.894 2.838 309.664-1.999 463.518-2.898 91.095-40.692 200.54-4.157 288.519 15.829 38.079 35.976 59.086 28.621 102.756-6.136 36.561-19.847 69.509-22.425 107.049"/>
    <path stroke="#00E0FF" stroke-miterlimit="10" stroke-opacity=".35" stroke-width=".5" d="M500.439-58.32c1.819 151.757.3 305.791-4.577 457.528-3.078 95.208-37.514 208.027-2.298 300.38 14.13 37.08 33.977 59.045 27.341 100.918-5.616 35.164-18.307 66.953-20.486 103.036"/>
    <path stroke="#00E0FF" stroke-miterlimit="10" stroke-opacity=".35" stroke-width=".5" d="M523.162-58.32c.88 86.481-6.375 172.803-6.455 259.325 0 64.477.54 129.373-1.479 193.81-3.098 98.662-33.337 213.978.559 309.944 12.772 36.103 32.119 59.086 25.983 99.302-5.137 33.945-16.829 64.716-18.688 99.481"/>
    <path stroke="#00E0FF" stroke-miterlimit="10" stroke-opacity=".35" stroke-width=".5" d="M545.887-58.32c.5 85.383-9.413 170.327-9.733 255.791-.26 64.716-.36 129.792-2.258 194.409-2.998 101.478-28.321 218.53 4.297 317.372 11.612 35.184 30.199 59.186 24.683 97.844-4.677 32.847-15.45 62.799-17.009 96.406"/>
    <path stroke="#00E0FF" stroke-miterlimit="10" stroke-opacity=".35" stroke-width=".5" d="M568.611-58.32c0 84.265-12.891 167.731-13.511 252.037-.48 65.455-1.379 131.09-3.118 196.525-2.778 103.715-22.564 221.806 8.774 322.884 10.653 34.365 28.301 59.305 23.304 96.686-4.277 31.948-14.15 61.142-15.469 93.73"/>
    <path stroke="#00E0FF" stroke-miterlimit="10" stroke-opacity=".35" stroke-width=".5" d="M591.315-58.32c-.679 83.147-16.688 164.836-17.628 248.163-.759 66.613-2.518 133.307-3.997 199.92-2.458 105.452-16.249 223.922 13.851 326.698 9.853 33.606 26.402 59.445 21.865 95.647-3.878 31.05-12.891 59.764-13.991 91.434"/>
    <path stroke="#00E0FF" stroke-miterlimit="10" stroke-opacity=".35" stroke-width=".5" d="M614.041-58.32c-1.439 82.088-20.785 161.881-21.985 244.249-1.059 68.131-3.737 136.242-5.056 204.353-1.999 106.71-9.494 225.001 19.387 328.954 9.153 32.988 24.483 59.625 20.386 94.809-3.538 30.351-11.692 58.606-12.672 89.497"/>
    <path stroke="#00E0FF" stroke-miterlimit="10" stroke-opacity=".35" stroke-width=".5" d="M636.766-58.32c-2.259 81.13-25.123 158.826-26.702 240.375-1.379 69.889-5.037 139.777-5.996 209.665-1.539 107.568-2.438 225.12 25.203 329.873 8.594 32.567 22.305 59.684 18.887 94.089-2.938 29.733-10.553 57.688-11.392 87.86"/>
    <path stroke="#00E0FF" stroke-miterlimit="10" stroke-opacity=".35" stroke-width=".5" d="M659.49-58.342C656.353 21.95 629.991 97.41 628.072 178.3c-1.699 71.885-6.356 143.67-6.995 215.535-.94 108.067 4.836 224.421 31.238 329.613 7.995 32.089 20.406 59.904 17.328 93.55-2.658 29.214-9.453 56.929-10.173 86.542"/>
    <path stroke="#00E0FF" stroke-miterlimit="10" stroke-opacity=".35" stroke-width=".5" d="M682.195-58.342c-3.998 79.613-33.977 152.736-36.116 233.127-1.998 73.882-7.695 147.764-7.994 221.786-.28 108.287 12.171 222.983 37.294 328.375 7.555 31.689 18.488 60.143 15.749 93.131-2.378 28.794-8.394 56.33-9.013 85.463"/>
    <path stroke="#00E0FF" stroke-miterlimit="10" stroke-opacity=".35" stroke-width=".5" d="M704.918-58.342c-4.837 79.094-38.374 149.76-40.752 229.913-2.239 75.978-8.994 152.156-8.714 228.195.38 108.246 19.446 220.966 43.23 326.358 7.075 31.35 16.549 60.383 14.131 92.831-2.119 28.435-7.375 55.911-7.895 84.585"/>
    <path stroke="#00E0FF" stroke-miterlimit="10" stroke-opacity=".35" stroke-width=".5" d="M727.564-58.342c-5.577 78.794-42.711 146.905-45.11 227.157-2.338 78.035-10.213 156.41-9.433 234.505 1.099 108.047 26.582 218.491 48.966 323.762 13.431 63.159 6.676 113.079 5.657 176.538"/>
    <path stroke="#00E0FF" stroke-miterlimit="10" stroke-opacity=".35" stroke-width=".5" d="M750.348-58.342c-3.338 41.454-16.489 75.1-30.779 113.479-13.871 37.36-17.348 71.685-18.568 111.242-2.458 79.972-11.312 160.503-9.993 240.515 1.779 107.688 33.437 215.655 54.303 320.747 12.252 61.742 5.876 113.818 5.037 175.899"/>
    <path stroke="#00E0FF" stroke-miterlimit="10" stroke-opacity=".35" stroke-width=".5" d="M773.072-58.342c-3.657 41.494-17.687 74.062-33.137 112.001-15.15 37.22-18.727 71.066-19.986 110.923-2.519 81.709-12.192 164.217-10.373 245.986 2.398 107.229 39.972 212.68 59.119 317.493 11.073 60.483 5.057 114.736 4.357 175.439"/>
    <path stroke="#00E0FF" stroke-miterlimit="10" stroke-opacity=".35" stroke-width=".5" d="M795.796-58.342c-3.878 41.733-18.688 73.343-35.236 110.963-16.349 37.16-19.987 70.607-21.166 110.823-2.498 83.206-12.811 167.412-10.533 250.659 2.898 106.749 45.969 209.664 63.257 314.257 9.853 59.365 4.217 115.555 3.678 175.16"/>
    <path stroke="#00E0FF" stroke-miterlimit="10" stroke-opacity=".35" stroke-width=".5" d="M818.521-58.342c-3.997 42.153-19.487 72.944-37.035 110.444-17.388 37.16-20.925 70.327-22.085 110.922-2.418 84.425-13.091 169.928-10.493 254.373 3.298 106.231 51.365 206.71 66.655 311.143 8.534 58.426 3.338 116.274 2.958 174.98"/>
    <path stroke="#00E0FF" stroke-miterlimit="10" stroke-opacity=".35" stroke-width=".5" d="M841.245-58.32c-3.997 42.691-19.986 72.903-38.453 110.483-18.268 37.26-21.666 70.288-22.745 111.282-2.218 85.244-12.931 171.546-10.133 256.829 3.478 105.831 56.102 204.034 69.073 308.387 7.155 57.708 2.458 116.833 2.258 174.841"/>
    <path stroke="#00E0FF" stroke-miterlimit="10" stroke-opacity=".35" stroke-width=".5" d="M863.971-58.32c-3.878 43.43-20.307 73.382-39.433 111.322-18.927 37.34-22.125 70.347-23.025 111.821-1.998 85.643-12.291 172.165-9.493 257.828 3.437 105.371 60.099 201.837 70.412 306.19 5.676 57.248 1.579 117.153 1.579 174.721"/>
    <path stroke="#00E0FF" stroke-miterlimit="10" stroke-opacity=".35" stroke-width=".5" d="M886.715-58.3c-2.319 45.506-18.528 75.359-38.994 114.496-20.086 38.439-21.985 68.65-20.366 111.242 3.238 86.023-12.312 171.506-8.754 257.588 4.357 105.152 60.759 199.302 68.194 303.615 4.097 57.787-.6 116.893-.1 174.84"/>
    <path stroke="#00E0FF" stroke-miterlimit="10" stroke-opacity=".35" stroke-width=".5" d="M909.439-58.281c-.579 47.584-16.388 77.556-37.974 118.13-21.065 39.498-21.345 67.173-17.987 110.784 6.455 85.383-16.169 170.906-13.072 256.609 3.818 105.092 65.336 196.806 71.392 300.959 3.377 58.187-3.018 117.033-2.299 175.3"/>
    <path stroke="#00E0FF" stroke-miterlimit="10" stroke-opacity=".35" stroke-width=".5" d="M932.203-58.242c1.279 49.64-13.991 79.872-36.655 122.065-21.845 40.555-20.286 65.994-15.989 110.443 7.994 84.764-24.643 169.589-21.885 254.932 3.437 105.572 73.37 193.89 79.446 298.243 3.417 58.567-5.657 117.433-4.937 176.059"/>
    <path stroke="#00E0FF" stroke-miterlimit="10" stroke-opacity=".35" stroke-width=".5" d="M954.949-58.22c3.258 51.657-11.292 82.467-34.896 126.277-22.405 41.594-18.767 65.056-14.35 110.204 8.314 84.824-37.195 167.073-34.617 252.656 3.198 106.709 84.362 190.476 91.737 295.528 4.158 59.025-8.494 118.051-7.994 177.096"/>
    <path stroke="#00E0FF" stroke-miterlimit="10" stroke-opacity=".35" stroke-width=".5" d="M977.712-58.201c5.296 53.634-8.454 85.084-32.838 130.71-22.764 42.593-16.848 64.318-12.891 110.025 7.435 85.763-53.264 163.219-50.765 249.9 3.118 108.387 97.933 186.682 107.706 292.712 5.516 59.545-11.472 118.81-11.352 178.355"/>
    <path stroke="#00E0FF" stroke-miterlimit="10" stroke-opacity=".35" stroke-width=".5" d="M1000.46-58.162c7.41 55.551-5.419 87.86-30.501 135.284-22.945 43.51-14.551 63.897-11.633 109.824 5.557 87.5-72.23 158.187-69.732 246.705 3.118 110.444 113.526 182.808 126.696 289.957 7.39 60.084-14.59 119.808-14.99 179.812"/>
    <path stroke="#00E0FF" stroke-miterlimit="10" stroke-opacity=".35" stroke-width=".5" d="M1023.2-58.14c9.53 57.408-2.28 90.475-27.98 139.996-7.395 14.277-16.728 29.353-18.867 45.686-3.118 23.583 7.575 40.775 8.294 64.138 2.759 89.696-93.536 152.256-90.957 243.171 3.177 112.58 130.85 179.094 148.12 287.221 9.67 60.543-17.77 120.906-18.85 181.43"/>
    <path stroke="#00E0FF" stroke-miterlimit="10" stroke-opacity=".35" stroke-width=".5" d="M1045.97-58.102c11.65 59.206.9 93.191-25.27 144.749-7.33 14.277-16.69 29.593-18.5 46.026-2.582 23.203 9.09 40.675 8.87 63.718-.86 91.854-116.56 145.967-113.922 239.418 3.258 114.516 149.542 175.838 171.382 284.545 12.21 60.842-21 122.244-22.82 183.147"/>
    <path stroke="#00E0FF" stroke-miterlimit="10" stroke-opacity=".35" stroke-width=".5" d="M1068.71-58.082c15.07 66.054.24 98.822-26.24 156.53-6.78 14.736-13.63 28.474-14.29 45.088-.72 17.971 8.79 33.945 9.43 51.477 3.62 97.085-139.483 144.25-137.904 241.614.82 53.914 54.423 101.537 88.06 138.399 36.174 39.616 90.094 85.024 106.904 137.919 19.47 61.222-23.58 129.153-26.12 190.635"/>
    <path stroke="#00E0FF" stroke-miterlimit="10" stroke-opacity=".35" stroke-width=".5" d="M1091.46-58.041c17.34 67.991 3.37 101.418-23.43 161.362-6.63 14.856-13.45 28.574-13.69 45.288-.28 17.671 9.99 33.646 9.99 51.118 0 99.84-163.564 137.44-162.465 237.5.579 53.914 64.336 103.055 99.415 137.24 39.81 38.798 99.25 82.868 119.92 136.602 23.2 60.463-26.57 131.35-29.86 192.432"/>
    <path stroke="#00E0FF" stroke-miterlimit="10" stroke-opacity=".35" stroke-width=".5" d="M1114.22-58.022c19.57 69.889 6.47 103.954-20.65 166.115-6.51 14.956-13.29 28.654-13.13 45.447.16 17.332 11.05 33.367 10.39 50.739-1.99 51.478-71.45 96.027-105.224 125.939-29.66 26.258-81.944 62.999-81.744 107.548.32 54.033 74.649 104.473 110.788 136.142 43.47 38.099 108.28 80.811 132.81 135.364 26.8 59.604-29.52 133.586-33.54 194.229"/>
    <path stroke="#00E0FF" stroke-miterlimit="10" stroke-opacity=".35" stroke-width=".5" d="M1136.96-57.982c21.75 71.705 9.52 106.39-17.98 170.707-6.42 15.056-13.16 28.674-12.6 45.547.56 16.873 12.18 33.007 10.9 50.319-3.88 52.377-82.87 95.847-118.663 123.683-30.859 23.961-92.357 60.822-92.297 105.83 0 54.054 84.942 105.831 121.92 135.124 47.08 37.38 117.1 78.874 145.5 134.206 30.14 58.726-32.44 135.683-37.12 195.966"/>
    <path stroke="#00E0FF" stroke-miterlimit="10" stroke-opacity=".35" stroke-width=".5" d="M1159.73-57.96c23.28 71.245 13.85 107.827-13.99 172.483-6.36 14.737-13.59 28.175-13.53 44.709.06 16.533 12.33 31.949 11.99 47.923-1.26 57.169-95.84 102.297-135.67 129.533-28.52 19.509-101.929 59.145-100.67 101.837 1.559 52.576 94.8 105.272 129.91 130.891 50.35 36.681 138.83 82.328 165.61 142.412 13.87 31.11-.52 67.572-14.27 96.086-15.63 32.389-26.56 59.266-29.7 95.627"/>
    <path stroke="#00E0FF" stroke-miterlimit="10" stroke-opacity=".35" stroke-width=".5" d="M1182.47-57.941c24.69 71.306 18.23 111.302-11.71 176.617-6.64 14.477-13.59 28.355-13.23 44.689.36 16.334 13.53 31.709 12.95 47.404-2.18 57.907-107.07 102.157-148.04 127.436-28.739 17.752-111.382 57.408-110.063 100.499 1.579 52.836 104.333 106.231 139.703 130.132 53.19 35.943 147.9 80.372 177.5 141.394 15.25 31.37-.62 68.231-15.27 96.706-16.81 32.667-28.72 59.425-32.24 96.565"/>
    <path stroke="#00E0FF" stroke-miterlimit="10" stroke-opacity=".35" stroke-width=".5" d="M1205.24-57.902c26.46 72.663 21.08 113.438-9.64 180.431-6.59 14.417-13.67 28.215-13.01 44.529.66 15.974 14.71 31.45 13.99 46.945-2.62 58.646-117.26 101.957-159.11 125.539-28.98 16.374-119.757 55.711-118.438 99.301 1.619 53.275 112.638 106.949 148.298 129.493 55.62 35.204 156.19 78.575 188.19 140.516 16.33 31.629-.82 68.849-16.27 97.264-17.86 32.907-30.64 59.505-34.45 97.384"/>
    <path stroke="#00E0FF" stroke-miterlimit="10" stroke-opacity=".35" stroke-width=".5" d="M1227.96-57.88c28.12 73.881 23.79 115.434-7.87 183.905-6.62 14.317-13.83 27.955-12.91 44.249.9 15.775 15.88 31.111 15.25 46.426-2.5 59.185-126.46 101.837-168.61 123.922-29.34 15.355-126.833 54.013-125.514 98.303 1.619 53.913 119.374 107.428 155.414 128.993 57.54 34.465 163.73 76.997 197.35 139.777 17.06 31.949-1.12 69.409-17.21 97.843-18.79 33.087-32.34 59.545-36.34 98.064"/>
    <path stroke="#00E0FF" stroke-miterlimit="10" stroke-opacity=".35" stroke-width=".5" d="M1250.73-57.861c28.88 72.783 27.56 116.374-5.18 184.385-8 16.573-16.67 32.328-14.59 51.378 2 17.572 16.61 27.396 14.61 45.926-6 55.152-117.54 90.056-158.35 109.964-37.02 18.071-143.145 54.174-143.904 105.212-.88 52.836 115.404 103.834 152.534 125.28 43.61 25.299 88.4 49.021 130.79 76.378 27.64 17.851 69.61 39.936 82.85 71.525 11.85 28.235-4.48 62.959-18.13 87.34-19.71 35.224-36.84 62.66-41.03 103.834"/>
    <path stroke="#00E0FF" stroke-miterlimit="10" stroke-opacity=".35" stroke-width=".5" d="M1273.47-57.842c30.2 73.722 29.98 118.051-4.2 186.981-7.99 16.234-17.14 31.809-14.85 50.659 2.14 17.592 17.99 26.717 16.31 45.487-4.75 55.651-122.27 90.196-163.09 109.146-37.79 17.532-147.556 52.596-148.515 104.692-.979 53.814 118.115 103.834 155.895 125.081 44.79 25.119 91.28 48.342 134.59 76.018 27.98 17.971 70.99 39.277 84.34 71.446 11.77 28.354-4.96 63.338-18.87 87.58-20.28 35.343-37.97 62.54-42.11 104.253"/>
    <path stroke="#00E0FF" stroke-miterlimit="10" stroke-opacity=".35" stroke-width=".5" d="M1296.22-57.822c31.37 74.52 32.13 119.549-3.74 189.097-8.14 15.755-17.77 31.131-15.33 49.701 2.34 17.632 19.39 25.958 18.41 44.928-2.88 56.09-124.92 90.475-165.49 108.666-38.65 17.333-149.899 51.178-151.018 104.553-1.079 55.072 118.558 103.834 157.148 125.06 45.61 25 93.02 48.023 137.11 75.719 28.26 17.772 71.45 38.918 84.48 71.486 11.4 28.414-5.47 63.618-19.48 87.679-20.67 35.444-38.84 62.361-42.63 104.433"/>
    <path stroke="#00E0FF" stroke-miterlimit="10" stroke-opacity=".35" stroke-width=".5" d="M1318.9-57.842c29.98 73.543 29.7 118.251-3.72 187.341-7.87 16.254-16.91 31.949-14.63 50.798 2.14 17.532 17.69 26.698 15.99 45.428-4.97 55.791-122.59 89.856-163.59 108.746-37.97 17.472-148.08 52.336-148.95 104.672-.9 53.914 118.21 103.834 156.17 124.881 44.71 24.9 91.16 47.923 134.39 75.359 28.2 17.972 71.13 39.218 84.62 71.426 11.99 28.514-4.84 63.319-18.67 87.86-19.98 35.503-37.97 63.218-42.15 104.892"/>
    <path stroke="#00E0FF" stroke-miterlimit="10" stroke-opacity=".35" stroke-width=".5" d="M1341.6-57.861c28.48 72.424 27.3 116.853-3.65 185.343-7.6 16.753-15.99 32.828-13.87 51.917 1.99 17.512 16.14 27.376 13.89 45.927-6.7 55.311-118.9 89.257-160.17 108.906-37.3 17.751-144.89 53.554-145.61 104.872-.71 52.895 116.17 103.155 153.46 124.361 43.55 24.741 88.24 47.923 130.57 74.741 27.98 17.711 70.07 39.636 83.66 71.186 12.34 28.554-4.23 63.258-17.68 88.219-19.25 35.782-36.78 64.516-41.08 105.83"/>
    <path stroke="#00E0FF" stroke-miterlimit="10" stroke-opacity=".35" stroke-width=".5" d="M1364.29-57.902c27.64 73.342 23.88 116.553-4.74 185.882-5.99 14.637-12.79 28.754-11.65 45.028 1.08 15.336 15.43 31.27 14.35 46.406-4.28 59.545-129.79 100.18-172.9 121.805-28.74 14.437-130.97 53.595-129.11 97.604 2.25 53.674 121.55 105.831 157.67 126.758 58.7 33.826 162.85 73.881 198.54 136.002 18.55 32.288-.66 70.627-16.25 100.16-17.98 34.225-32.23 62.7-36.35 101.837"/>
    <path stroke="#00E0FF" stroke-miterlimit="10" stroke-opacity=".35" stroke-width=".5" d="M1386.97-57.922c25.99 71.885 21.75 115.256-4.47 183.706-5.74 14.936-12 29.433-10.94 45.807 1 15.336 14.25 31.689 12.82 46.965-5.5 59.006-123.08 99.481-166.25 122.264-27.98 14.817-126.35 55.012-124.38 97.964 2.42 52.416 116.46 104.453 151.9 125.559 57.16 34.065 155.33 73.722 190.33 134.485 18.57 32.228-.22 71.126-14.87 101.278-16.91 34.784-30.52 64.497-34.5 103.494"/>
    <path stroke="#00E0FF" stroke-miterlimit="10" stroke-opacity=".35" stroke-width=".5" d="M1409.68-57.941c24.44 70.327 19.68 113.937-4.2 181.25-5.42 15.235-11.21 30.052-10.21 46.525.94 15.436 13.15 32.069 11.49 47.544-6.28 58.287-115.48 98.742-158.37 122.764-27.48 15.375-120.68 56.35-118.66 98.343 2.44 51.158 109.92 102.656 144.62 124.121 55.06 34.166 147.06 73.563 180.68 132.768 18.28 32.188.12 71.885-13.46 102.556-15.66 35.503-28.56 66.534-32.27 105.591"/>
    <path stroke="#00E0FF" stroke-miterlimit="10" stroke-opacity=".35" stroke-width=".5" d="M1432.36-57.982c23.31 70.607 16.65 113.957-4.88 181.709-5.01 15.815-9.99 31.07-8.21 47.923 1.78 16.853 12.95 32.588 9.03 50.04-11.99 53.914-103.33 90.635-144.34 115.476-33.65 20.387-110.48 54.912-112.76 101.158-2.48 50.379 102.59 102.835 137.41 125.499 52.36 34.046 124.87 69.01 161.21 121.985 22.7 33.107 6.13 73.662-7.16 107.688-14.51 37.081-27.14 70.028-30.64 110.104"/>
    <path stroke="#00E0FF" stroke-miterlimit="10" stroke-opacity=".35" stroke-width=".5" d="M1455.07-58.002c21.58 68.77 14.85 112.78-4.46 179.114-4.68 15.974-9.12 31.669-7.56 48.602 1.56 16.933 12 33.027 8 50.539-11.63 52.856-94.82 89.856-134.75 115.995-31.24 20.427-105.23 57.088-105.31 101.557 0 50.579 92.22 99.182 127.79 123.802 49.07 33.946 116.33 68.69 149.78 120.048 21.67 33.227 5.84 74.741-5.99 109.166-13.09 37.939-24.75 72.404-27.84 112.739"/>
    <path stroke="#00E0FF" stroke-miterlimit="10" stroke-opacity=".35" stroke-width=".5" d="M1477.75-58.022c19.87 66.894 13.17 111.622-4 176.518-4.31 16.314-8.35 32.249-6.89 49.281 1.46 17.033 10.79 33.407 7.19 50.999-10.53 51.677-86.18 89.277-124.41 116.534-30.32 21.625-97.25 58.406-97.27 101.957 0 49.341 82.94 96.525 117.36 121.925 45.52 33.606 107.34 68.37 137.58 118.011 20.37 33.446 5.44 75.878-5 110.743-11.67 38.838-22.24 74.84-24.86 115.555"/>
    <path stroke="#00E0FF" stroke-miterlimit="10" stroke-opacity=".35" stroke-width=".5" d="M1500.46-58.06c18.14 65.015 11.55 110.523-3.54 173.921-4 16.554-7.58 32.788-6.26 49.921 1.32 17.132 9.88 33.945 6.5 51.457-9.62 50.519-76.97 88.359-113.48 117.033-29.23 22.963-88.76 59.725-88.74 102.336 0 48.024 73.25 93.691 106.32 120.088 41.75 33.307 97.94 68.072 124.72 115.935 18.9 33.766 4.99 77.276-4 112.4-10.21 39.757-19.65 77.257-21.76 118.451"/>
    <path stroke="#00E0FF" stroke-miterlimit="10" stroke-opacity=".35" stroke-width=".5" d="M1523.14-58.082c16.41 63.1 9.99 109.445-3.08 171.306-7.61 35.943 6.18 68.63.32 102.496-8.51 49.261-67.67 87.32-102.07 117.472-27.98 24.461-79.94 61.043-79.94 102.676 0 46.665 63.35 90.735 94.83 118.251 37.85 33.107 88.16 67.891 111.4 113.918 17.31 34.265 4.54 78.534-3.13 114.077-8.8 40.695-17.03 79.633-18.67 121.386"/>
    <path stroke="#00E0FF" stroke-miterlimit="10" stroke-opacity=".35" stroke-width=".5" d="M1545.84-58.121c13.73 57.728 10.34 103.415-.86 160.463-3.41 17.472-7.69 35.424-7.23 53.395.56 22.204 9.99 41.933 4.66 64.257-10.48 44.249-55.85 79.493-86.6 109.585-24.75 24.201-76.49 66.194-75.25 105.671 1.42 45.607 59.26 90.795 88.26 119.209 33.53 32.848 80.58 68.511 96.23 114.417 23.41 68.75-17.47 162.94-19.45 234.625"/>
    <path stroke="#00E0FF" stroke-miterlimit="10" stroke-opacity=".35" stroke-width=".5" d="M1568.53-58.14c12.11 56.03 8.81 102.276-.62 157.747-6.78 39.936 5.67 80.971-2 118.81-8.71 42.951-47.39 78.515-75.17 109.824-23.22 26.239-66.19 67.153-65.23 105.931 1.12 44.229 48.7 87.5 75.62 117.492 29.8 33.247 69.58 68.61 82.69 112.62 21.38 71.685-14.27 164.976-15.47 239.118"/>
    <path stroke="#00E0FF" stroke-miterlimit="10" stroke-opacity=".35" stroke-width=".5" d="M1591.21-58.162c10.5 54.373 7.38 101.178-.42 155.252-5.77 40.195 5.12 81.25-1.41 119.968-13.48 79.872-120.32 133.506-118.84 216.094 1.58 87.86 111.42 144.429 132.29 226.977 18.92 74.861-11.3 166.574-11.8 243.371"/>
    <path stroke="#00E0FF" stroke-miterlimit="10" stroke-opacity=".35" stroke-width=".5" d="M1613.92-58.201c8.83 52.815 5.99 100.14-.24 152.756-4.82 40.595 4.42 81.589-.88 121.146-10.51 78.394-98.21 135.783-97.37 216.154.86 84.166 90.31 144.05 106.78 224.361 15.99 78.056-8.57 167.872-8.45 247.265"/>
    <path stroke="#00E0FF" stroke-miterlimit="10" stroke-opacity=".35" stroke-width=".5" d="M1636.6-58.22c7.18 51.357 4.7 99.08-.1 150.359-3.81 40.954 3.66 82.009-.4 122.324-7.67 76.578-76.53 138.059-76.27 215.935.26 80.591 69.96 144.229 82.21 222.324 12.71 80.951-6.18 168.97-5.56 250.759"/>
    <path stroke="#00E0FF" stroke-miterlimit="10" stroke-opacity=".35" stroke-width=".5" d="M1659.31-58.242c5.47 50.06 3.46 98.023 0 148.063-2.86 41.334 2.8 82.568 0 123.542-5.14 74.661-55.6 140.076-55.78 215.396-.16 77.496 50.48 144.888 58.9 221.007 9.19 83.286-4 170.008-3.18 253.714"/>
    <path stroke="#00E0FF" stroke-miterlimit="10" stroke-opacity=".35" stroke-width=".5" d="M1681.99-58.281c6.76 88.179 3.88 182.328.24 270.747-2.98 72.843-35.76 141.334-36.13 214.477-.38 75.24 32.19 145.767 37.23 220.487 5.72 84.904-2.32 171.007-1.4 256.071M1704.7-58.3c3.61 89.496 1.85 180.511.25 270.067-1.25 71.386-17.22 141.774-17.56 213.12-.36 74.081 15.35 147.004 17.58 220.946 2.58 85.863-.97 171.825-.31 257.588"/>
    <path stroke="#00E0FF" stroke-miterlimit="10" stroke-opacity=".35" stroke-width=".5" d="M1727.38 884.63c-287.8-1.997-575.61.939-863.409 1.638-287.804.698-575.607-3.475-863.41-1.638M1727.38 865.702c-287.64-2.496-575.73 4.892-863.409 5.87-288.083.959-575.307-9.085-863.41-5.87M1727.38 846.912c-153.43-1.078-306.73 8.526-460.18 8.666-134.41.14-268.801 3.135-403.209 3.574-132.57.42-265.279 3.634-397.589-7.009-155.893-12.54-309.648-7.468-465.841-5.231"/>
    <path stroke="#00E0FF" stroke-miterlimit="10" stroke-opacity=".35" stroke-width=".5" d="M1727.38 828.061c-151.56-.439-302.65 13.978-454.27 14.517-136.37.519-272.67 5.411-409.04 5.711-131.11.28-262.66 2.995-393.151-11.981C313.227 818.197 158.852 825.466.58 828.081"/>
    <path stroke="#00E0FF" stroke-miterlimit="10" stroke-opacity=".35" stroke-width=".5" d="M1727.38 809.192c-149.5.519-297.92 20.108-447.51 21.226-138.61 1.039-277.09 7.988-415.72 8.147-129.551 0-260.102 1.857-388.554-17.671C316.205 796.652 161.05 806.377.58 809.192"/>
    <path stroke="#00E0FF" stroke-miterlimit="10" stroke-opacity=".35" stroke-width=".5" d="M1727.38 790.341c-147.34 1.598-292.78 26.737-440.32 28.435-140.98 1.597-281.81 10.942-422.83 10.743-128.112-.16-257.964.439-384.257-23.663-160.87-30.711-316.824-18.43-479.393-15.515"/>
    <path stroke="#00E0FF" stroke-miterlimit="10" stroke-opacity=".35" stroke-width=".5" d="M1727.38 771.491c-145.24 2.716-287.46 33.526-432.98 35.763-143.41 2.196-286.65 13.858-430.09 13.398-126.973-.399-256.505-.998-380.82-29.612C321.601 753.759 165.008 768.536.58 771.471"/>
    <path stroke="#00E0FF" stroke-miterlimit="10" stroke-opacity=".35" stroke-width=".5" d="M1727.38 752.623c-143.28 3.774-282.17 40.136-425.89 42.871-145.74 2.756-291.32 16.634-437.12 15.975-126.294-.559-256.005-2.157-378.702-35.104C323.199 732.695 166.506 749.728.6 752.623"/>
    <path stroke="#00E0FF" stroke-miterlimit="10" stroke-opacity=".35" stroke-width=".5" d="M1727.38 733.772c-141.56 4.572-277.19 46.206-419.33 49.361-147.9 3.254-295.66 19.109-443.699 18.35-126.234-.639-256.745-2.735-378.382-39.776C323.36 712.186 167.606 730.936.561 733.752"/>
    <path stroke="#00E0FF" stroke-miterlimit="10" stroke-opacity=".35" stroke-width=".5" d="M1727.38 714.922c-140.16 5.072-272.77 51.418-413.72 54.872-149.9 3.655-299.37 21.067-449.291 20.428-126.953-.539-258.943-2.456-380.4-43.271-74.649-25.08-146.72-40.475-225.846-41.933-85.941-1.637-171.683 8.506-257.584 9.984"/>
    <path stroke="#00E0FF" stroke-miterlimit="10" stroke-opacity=".35" stroke-width=".5" d="M1727.38 695.973c-75.61 2.795-146.16 20.686-219.37 37.759-63.4 14.796-125.03 19.629-189.87 21.306-151.34 3.894-302.29 22.364-453.69 22.065-128.392-.26-263.18-.659-385.237-45.168-74.109-27.037-145.041-44.549-224.387-46.386-84.882-1.877-169.504 9.106-254.246 10.424"/>
    <path stroke="#00E0FF" stroke-miterlimit="10" stroke-opacity=".35" stroke-width=".5" d="M1727.38 677.202c-75.43 2.516-144.86 21.366-217.51 39.497-63.12 15.775-124.2 20.367-189.05 21.965-152.36 3.973-304.17 22.883-456.65 23.202-131.07.3-269.116 2.397-393.351-45.087-73.55-28.115-142.263-48.423-221.669-50.58-82.963-2.176-165.666 9.585-248.57 10.983"/>
    <path stroke="#00E0FF" stroke-miterlimit="10" stroke-opacity=".35" stroke-width=".5" d="M1727.38 658.334c-75.79 2.376-145.32 21.545-218.21 40.056-62.96 15.974-123.68 20.347-188.37 21.964-152.48 3.994-304.25 22.624-456.829 23.403-134.668.679-276.271 4.672-404.504-42.812-72.79-26.956-138.885-49.64-217.431-52.396-80.545-2.815-160.95 8.706-241.475 9.745"/>
    <path stroke="#00E0FF" stroke-miterlimit="10" stroke-opacity=".35" stroke-width=".5" d="M1727.38 639.484c-78.43 3.294-152.02 21.825-228 39.497-63.36 14.716-124.62 19.688-189.47 21.525-149.4 4.193-298.12 22.245-447.699 22.165-136.966 0-279.189.419-411.499-39.577-71.951-21.725-137.306-43.67-213.194-47.504-78.946-3.994-158.032 4.113-236.998 3.894"/>
    <path stroke="#00E0FF" stroke-miterlimit="10" stroke-opacity=".35" stroke-width=".5" d="M1727.36 620.633c-148.54 7.148-289.8 54.273-438.86 58.526-143.56 4.093-286.44 20.827-430.207 19.968-137.766-.879-278.849-3.894-413.477-36.042-70.892-16.913-136.587-37.181-210.017-41.674-77.947-4.792-156.213.34-234.26-.718"/>
    <path stroke="#00E0FF" stroke-miterlimit="10" stroke-opacity=".35" stroke-width=".5" d="M1727.34 601.764c-157.89 7.987-310.35 50.599-468.7 54.912-135.53 3.694-270.295 18.53-406.003 16.753-137.246-1.797-275.971-8.267-411.339-32.268-69.952-12.4-136.347-30.272-207.678-35.084-77.547-5.232-155.434-2.716-233.08-4.313"/>
    <path stroke="#00E0FF" stroke-miterlimit="10" stroke-opacity=".35" stroke-width=".5" d="M1727.3 582.914c-169.48 8.486-335.11 46.186-504.96 50.379-125.77 3.135-250.724 15.556-376.698 12.96-135.527-2.796-271.175-12.66-405.723-28.415-69.093-8.087-136.407-23.003-206.099-27.955-77.667-5.332-155.554-5.152-233.28-6.969"/>
    <path stroke="#00E0FF" stroke-miterlimit="10" stroke-opacity=".35" stroke-width=".5" d="M1727.26 564.064c-182.62 8.826-362.63 41.514-545.63 45.268-114.92 2.356-228.861 11.981-343.943 8.706-279.929-8.107-557.279-47.324-837.228-53.914"/>
    <path stroke="#00E0FF" stroke-miterlimit="10" stroke-opacity=".35" stroke-width=".5" d="M1727.2 545.194c-299.56 13.838-597.25 55.551-897.787 44.089C552.942 578.72 277.25 551.344.539 545.174"/>
    <path stroke="#00E0FF" stroke-miterlimit="10" stroke-opacity=".35" stroke-width=".5" d="M1727.16 526.344c-301.95 13.359-603.59 48.682-906.141 34.105-125.654-5.99-250.969-25.738-376.923-17.731-147.479 9.485-296.038-13.499-443.557-16.474"/>
    <path stroke="#00E0FF" stroke-miterlimit="10" stroke-opacity=".35" stroke-width=".5" d="M1727.12 507.495c-304.45 13.079-609.34 42.472-914.096 24.561-121.917-7.169-243.833-30.172-365.87-14.877-148.718 18.631-297.617-7.208-446.615-9.724"/>
    <path stroke="#00E0FF" stroke-miterlimit="10" stroke-opacity=".35" stroke-width=".5" d="M1727.08 488.624c-306.85 13.139-614.4 37.321-921.251 15.975-118.519-8.267-236.958-34.725-355.417-12.62-150.297 28.075-298.636-1.098-449.873-3.355"/>
    <path stroke="#00E0FF" stroke-miterlimit="10" stroke-opacity=".35" stroke-width=".5" d="M1727.06 469.775c-308.93 13.598-618.68 33.486-927.165 8.726-115.921-9.306-230.843-39.557-346.364-11.043-152.076 37.56-298.976 4.533-452.97 2.277"/>
    <path stroke="#00E0FF" stroke-miterlimit="10" stroke-opacity=".35" stroke-width=".5" d="M1727.04 450.925c-310.35 14.597-621.97 31.27-931.362 3.395-114.302-10.304-226.086-45.288-339.509-10.304-153.715 47.404-298.696 9.465-455.608 6.869"/>
    <path stroke="#00E0FF" stroke-miterlimit="10" stroke-opacity=".35" stroke-width=".5" d="M1727.02 432.075c-259.28 13.559-519.38 17.972-779.026 16.434-51.965-.299-102.75-10.882-154.555-15.974-114.162-11.282-222.668-51.378-335.651-10.544-69.612 25.18-130.311 37.74-205.02 33.387-84.442-5.012-167.485-21.505-252.207-23.363"/>
    <path stroke="#00E0FF" stroke-miterlimit="10" stroke-opacity=".35" stroke-width=".5" d="M1727.02 413.204c-259.36 13.978-519.36 16.634-779.086 16.494-51.965 0-102.99-11.402-154.775-16.713-114.581-11.761-221.548-52.117-334.991-10.284-69.952 25.819-129.911 38.798-205.38 33.806-84.502-5.571-167.305-22.943-252.227-23.362"/>
    <path stroke="#00E0FF" stroke-miterlimit="10" stroke-opacity=".35" stroke-width=".5" d="M1727.04 394.455c-254.97 12.939-510.59 17.013-765.877 16.753-56.222 0-111.923-12.919-167.885-18.67-114.502-11.741-221.609-45.927-335.131-7.668-70.512 23.802-131.651 34.425-206.579 28.854-84.063-6.37-166.367-22.644-251.029-19.449"/>
    <path stroke="#00E0FF" stroke-miterlimit="10" stroke-opacity=".35" stroke-width=".5" d="M1727.08 375.485c-247.29 11.981-495.48 18.531-743.072 17.073-63.737-.379-126.794-15.575-190.191-21.965-114.561-11.581-222.148-38.898-335.67-3.794-70.912 21.965-133.329 30.132-207.858 23.962-83.623-6.989-165.487-22.264-249.75-15.375"/>
    <path stroke="#00E0FF" stroke-miterlimit="10" stroke-opacity=".35" stroke-width=".5" d="M1727.1 356.616c-237.04 10.982-475.49 20.527-712.87 17.372-73.652-.978-146.303-19.089-219.573-26.358-114.701-11.381-223.027-31.07-336.51 1.059-71.251 20.167-134.948 25.958-209.037 19.129C165.787 360.21 84.302 345.873.52 356.516"/>
    <path stroke="#00E0FF" stroke-miterlimit="10" stroke-opacity=".35" stroke-width=".5" d="M1727.14 337.766c-225.09 9.984-452.11 22.484-677.54 17.651-85.279-1.817-169.041-23.322-253.824-31.509-114.981-11.103-224.106-22.724-337.609 6.649-71.591 18.53-136.567 21.705-210.276 14.357-83.004-8.267-164.208-21.745-247.371-7.288"/>
    <path stroke="#00E0FF" stroke-miterlimit="10" stroke-opacity=".35" stroke-width=".5" d="M1727.2 318.895c-212.17 9.145-426.79 24.201-639.24 17.971-97.936-2.875-193.611-28.115-291.024-37.181-115.362-10.762-225.087-13.977-338.729 12.72-153.415 35.943-305.511-27.456-457.687 6.35"/>
    <path stroke="#00E0FF" stroke-miterlimit="10" stroke-opacity=".35" stroke-width=".5" d="M1727.24 300.026c-199.06 8.247-400.89 25.539-600.21 18.231-110.66-3.994-218.63-33.107-328.815-43.071-115.741-10.483-226.225-5.112-339.988 19.029C305.352 326.564 151.017 258.872.5 299.866"/>
    <path stroke="#00E0FF" stroke-miterlimit="10" stroke-opacity=".35" stroke-width=".5" d="M1727.28 281.176c-186.47 7.308-375.98 26.777-562.65 18.47-123-5.471-242.679-38.139-365.116-48.961-116.16-10.204-227.164 3.614-341.187 25.299C305.851 305.038 149.378 232.713.5 280.976"/>
    <path stroke="#00E0FF" stroke-miterlimit="10" stroke-opacity=".35" stroke-width=".5" d="M1727.32 262.306c-177.04 6.349-357.31 28.314-534.47 18.33-132.55-7.448-261.345-43.33-393.535-54.253-114.402-9.445-223.348 11.861-335.571 30.571C310.289 282.633 148.519 206.016.48 262.086"/>
    <path stroke="#00E0FF" stroke-miterlimit="10" stroke-opacity=".35" stroke-width=".5" d="M1727.36 243.436c-167.88 5.391-338.79 28.714-506.81 18.47-141.59-8.606-279.032-47.763-420.276-59.105-114.941-9.245-223.847 19.788-336.49 36.182C310.729 261.227 146.721 179.658.48 243.216"/>
    <path stroke="#00E0FF" stroke-miterlimit="10" stroke-opacity=".35" stroke-width=".5" d="M1727.38 224.586c-161.63 4.273-325.54 28.954-487.19 18.57-147.9-9.505-291.499-51.398-439.118-63.079-115.501-9.145-223.847 27.117-337.289 40.995C311.147 239.742 144.86 153.18.459 224.326"/>
    <path stroke="#00E0FF" stroke-miterlimit="10" stroke-opacity=".35" stroke-width=".5" d="M1727.4 205.716c-158.67 3.075-319.14 29.153-477.79 18.65-150.98-9.984-297.341-53.914-447.998-65.895-115.921-9.225-223.847 33.687-337.769 44.729-152.276 14.816-320.981-76.318-463.384 2.236"/>
    <path stroke="#00E0FF" stroke-miterlimit="10" stroke-opacity=".35" stroke-width=".5" d="M1727.38 186.788c-157.89 1.737-316.76 27.955-474.72 19.069-151.99-8.546-298.912-54.952-450.349-67.392-118.279-9.724-227.085 40.435-343.765 47.364-150.197 8.946-319.162-84.904-458.087.739"/>
    <path stroke="#00E0FF" stroke-miterlimit="10" stroke-opacity=".35" stroke-width=".5" d="M1727.38 167.998c-160.79 3.075-324.1 33.346-484.77 22.204-148.54-10.283-291.8-57.588-439.859-70.048-118.019-9.984-227.844 40.855-344.365 47.045-150.537 7.967-317.543-82.089-457.927.519"/>
    <path stroke="#00E0FF" stroke-miterlimit="10" stroke-opacity=".35" stroke-width=".5" d="M1727.36 149.148c-162.81 5.511-332.11 41.693-494.7 26.338-144.08-13.598-283.649-60.384-427.71-72.424-116.321-9.745-226.626 37.939-341.567 44.908-152.756 9.385-318.623-75.34-462.924.878"/>
    <path stroke="#00E0FF" stroke-miterlimit="10" stroke-opacity=".35" stroke-width=".5" d="M1727.36 130.298c-89.34 4.353-178.28 13.159-267.32 21.386-74.83 6.929-151.57 17.631-226.58 9.684-142.7-15.136-281.469-61.761-424.232-73.882-116.96-9.984-229.843 35.004-345.764 41.654-153.375 8.806-316.504-68.151-462.984.898"/>
    <path stroke="#00E0FF" stroke-miterlimit="10" stroke-opacity=".35" stroke-width=".5" d="M1727.38 111.447c-88.44 5.611-176.38 15.176-264.52 24.261-74.23 7.628-150.46 19.769-224.92 11.282-142.11-16.114-280.893-61.92-423.196-74.022-118.079-9.984-233.84 31.47-351.14 37.461-153.895 7.987-314.765-61.103-463.124.818"/>
    <path stroke="#00E0FF" stroke-miterlimit="10" stroke-opacity=".35" stroke-width=".5" d="M1727.38 92.598c-87.94 6.789-175.66 17.152-263.38 27.017-70.13 7.987-142.88 21.026-213.33 13.079-144.09-16.274-284.949-60.563-429.171-73.063-121.557-10.524-242.114 27.675-363.152 32.248-152.496 5.75-309.368-53.554-457.847.5"/>
    <path stroke="#00E0FF" stroke-miterlimit="10" stroke-opacity=".35" stroke-width=".5" d="M1727.38 73.728c-86.22 7.647-172.08 18.43-258.02 28.734-69.16 8.306-140.77 22.084-210.28 14.177-144.3-16.394-285.984-58.127-430.545-70.347-123.436-10.444-246.872 23.222-370.028 26.897C305.852 77.74 150.178 26.643.5 73.528"/>
    <path stroke="#00E0FF" stroke-miterlimit="10" stroke-opacity=".35" stroke-width=".5" d="M1727.4 54.877c-84.46 8.107-168.4 19.01-252.57 29.473-68.19 8.487-138.5 22.384-207.14 14.797-144.54-15.975-287.019-54.354-431.86-66.055-125.515-10.044-251.729 18.69-377.123 21.406C305.851 57.813 151.117 14.9.5 54.698"/>
    <path stroke="#00E0FF" stroke-miterlimit="10" stroke-opacity=".35" stroke-width=".5" d="M1727.4 36.029c-82.72 8.287-165.19 18.81-247.71 28.953-67.39 8.387-136.55 21.965-204.34 14.857-144.54-14.856-287.545-49.182-432.366-60.044-127.713-9.585-256.385 14.377-384.077 15.974C306.071 37.766 151.836 3.022.52 35.77"/>
    <path stroke="#00E0FF" stroke-miterlimit="10" stroke-opacity=".35" stroke-width=".5" d="M1727.42 17.158c-81.54 7.987-162.89 17.652-244.25 27.137-66.88 7.767-135.03 20.227-202.3 13.977C1136.84 45.013 993.901 15.74 849.64 6.076 719.728-2.61 588.978 16.299 459.086 17.098 306.211 18.077 152.436-8.9.52 17.058"/>
    <path stroke="#00E0FF" stroke-miterlimit="10" stroke-opacity=".35" stroke-width=".5" d="M1727.42-1.712c-81.06 7.028-161.89 15.375-242.91 23.562-66.74 6.73-134.37 17.492-201.33 12.3C1140.36 23.048 998.319-.295 855.476-8.302c-131.77-7.408-264.379 6.51-396.229 6.65-152.896.18-306.331-19.41-458.667-.16"/>
    <path stroke="#00E0FF" stroke-miterlimit="10" stroke-opacity=".35" stroke-width=".5" d="M1727.42-20.58c-146.66 9.824-299.74 36.062-446.6 27.655-140.36-8.107-280.36-24.76-420.828-30.67-133.389-5.612-267.297 3.473-400.746 3.194-152.896-.3-306.051-12.9-458.707-.18"/>
    <path fill="#00334F" d="M1727-59h1728v963H1727z"/>
    <path stroke="#00E0FF" stroke-miterlimit="10" stroke-opacity=".35" stroke-width=".5" d="M3454.38-58.32c.29 320.607.29 641.214 0 961.821-575.61-.133-1151.21-.133-1726.82 0 .03-320.607.03-641.214 0-961.822 575.61-.499 1151.21.62 1726.82 0Z"/>
    <path stroke="#00E0FF" stroke-miterlimit="10" stroke-opacity=".35" stroke-width=".5" d="M1750.26-58.342c-6.45 320.568.92 641.215 0 961.842M1773.03-58.361c-11.87 320.447 1.56 641.254 0 961.861M1795.69-58.38c-4.11 81.27-12.67 163.957-9.31 245.307 3.4 79.712 9.15 159.744 10.19 239.617.94 72.564-7.99 144.788-2.98 217.392 6.1 87.081 2.68 172.444 2.12 259.585M1818.42-58.38c-4.84 79.871-14.85 161.441-10.85 241.393 3.99 81.869 11.35 164.138 12.29 245.987.84 71.426-11.11 142.332-4.44 213.838 8.17 87.859 3.66 172.624 3.02 260.643M1841.14-58.4c-5.29 79.033-16.15 160.064-11.73 239.197 4.58 83.347 13.13 167.612 13.81 251.079.58 70.147-14.25 139.556-6 209.804 10.36 88.618 4.7 172.764 4 261.761M1863.87-58.4c-5.48 78.754-16.65 159.744-12 238.538 4.84 84.525 14.49 170.388 14.77 254.912.22 68.79-17.42 136.662-7.71 205.672 12.63 89.496 5.74 172.763 4.96 262.819M1886.57-58.4c-5.43 78.953-16.61 160.064-11.87 239.197 5.08 85.204 15.61 172.145 15.37 257.588-.2 67.452-20.61 133.786-9.35 201.438 7.23 43.491 15.01 82.927 13.11 127.496-2 45.527-6.8 90.675-7.24 136.302M1909.3-58.4c-5.22 79.552-15.99 161.162-11.32 240.834 5.12 85.504 16.33 173.223 15.47 258.847-.66 66.194-23.7 131.29-10.91 197.683 8.39 43.651 17.17 82.169 14.99 127.277-2.22 45.926-7.74 91.254-8.21 137.24M1932.02-58.38c-4.86 80.43-15.09 162.819-10.39 243.35 4.99 85.443 16.65 173.562 15.17 259.126-1.12 65.095-26.73 129.213-12.35 194.469 9.63 43.81 19.3 81.29 16.82 126.937-2.49 46.146-8.69 91.673-9.23 137.939"/>
    <path stroke="#00E0FF" stroke-miterlimit="10" stroke-opacity=".35" stroke-width=".5" d="M1954.74-58.38c-4.35 81.589-13.81 164.915-9.23 246.545 4.8 85.044 16.63 173.163 14.53 258.287-1.58 64.277-29.6 127.795-13.59 192.212 10.93 43.93 21.47 80.232 18.67 126.418-2.8 46.186-9.74 91.853-10.36 138.359"/>
    <path stroke="#00E0FF" stroke-miterlimit="10" stroke-opacity=".35" stroke-width=".5" d="M1977.47-58.38c-3.78 82.887-12.27 167.272-7.88 250.179 4.46 84.365 16.19 172.045 13.58 256.45-2 63.738-32.34 127.316-14.55 191.114 12.23 43.93 23.6 78.974 20.4 125.679-3.16 46.366-10.81 91.853-11.53 138.399"/>
    <path stroke="#00E0FF" stroke-miterlimit="10" stroke-opacity=".35" stroke-width=".5" d="M2000.19-58.361c-3.13 84.265-10.53 169.728-6.43 254.033 3.99 83.407 15.39 170.208 12.35 253.595-2.3 63.638-34.84 127.915-15.15 191.454 13.57 43.77 25.72 77.536 22.1 124.7-3.57 46.266-11.99 91.434-12.87 138"/>
    <path stroke="#00E0FF" stroke-miterlimit="10" stroke-opacity=".35" stroke-width=".5" d="M2022.86-58.361c-2.48 85.663-8.72 172.264-4.96 257.907 3.58 82.209 14.19 167.732 10.91 249.901-2.55 64.017-37.11 129.792-15.35 193.51 14.87 43.531 27.83 75.879 23.69 123.383-4 46.026-13.21 90.735-14.29 137.101"/>
    <path stroke="#00E0FF" stroke-miterlimit="10" stroke-opacity=".35" stroke-width=".5" d="M2045.64-58.342c-1.86 86.961-6.85 174.621-3.55 261.582 3.07 80.791 12.65 164.517 9.29 245.288-2.68 64.996-39.09 133.207-15.07 197.544 16.15 43.211 29.98 73.882 25.22 121.805-4.49 45.587-14.57 89.597-15.89 135.603"/>
    <path stroke="#00E0FF" stroke-miterlimit="10" stroke-opacity=".35" stroke-width=".5" d="M2068.37-58.342c-1.26 88.14-5.04 176.738-2.26 264.857 2.48 79.173 10.77 160.743 7.53 239.876-2.73 66.614-40.79 138.339-14.27 203.874 17.31 42.712 31.98 71.705 26.65 119.808-5.08 44.929-15.99 87.98-17.65 133.427"/>
    <path stroke="#00E0FF" stroke-miterlimit="10" stroke-opacity=".35" stroke-width=".5" d="M2091.09-58.342c-.74 89.098-3.36 178.435-1.2 267.572 1.88 77.317 8.68 156.43 5.7 233.627-2.66 68.969-42.11 145.407-12.83 212.72 18.3 42.092 34.19 69.209 27.98 117.332-5.72 44.05-17.63 85.863-19.61 130.531"/>
    <path stroke="#00E0FF" stroke-miterlimit="10" stroke-opacity=".35" stroke-width=".5" d="M2113.82-58.32c-.34 89.736-1.9 179.573-.4 269.309 1.23 75.02 7.41 151.917 3.77 226.837-3.47 71.606-42.77 155.232-10.73 224.381 19.17 41.314 36.36 66.434 29.12 114.437-6.46 42.912-19.37 83.148-21.76 126.818"/>
    <path stroke="#00E0FF" stroke-miterlimit="10" stroke-opacity=".35" stroke-width=".5" d="M2136.54-58.32c-.16 162.5 8.73 327.117 1.88 489.397-3.2 75.599-43.25 166.853-7.88 239.118 19.99 40.675 38.08 63.159 30.18 111.062-6.85 41.534-21.26 79.872-24.18 122.225"/>
    <path stroke="#00E0FF" stroke-miterlimit="10" stroke-opacity=".35" stroke-width=".5" d="M2159.27-58.32c0 159.924 5.57 320.966 0 480.791-2.82 80.491-43.29 181.01-4.26 257.209 20.38 39.796 39.81 59.644 31.04 107.148-7.38 39.936-23.29 75.699-26.78 116.674"/>
    <path stroke="#00E0FF" stroke-miterlimit="10" stroke-opacity=".35" stroke-width=".5" d="M2181.99-58.32c1.16 156.67 4.16 314.597-.48 471.246-2.58 86.302-42.73 191.394-4.76 274.182 17.85 38.997 37.98 59.245 29.84 104.832-6.71 38.119-21.5 72.404-24.5 111.582"/>
    <path stroke="#00E0FF" stroke-miterlimit="10" stroke-opacity=".35" stroke-width=".5" d="M2204.73-58.32c1.72 153.894 2.84 309.664-2 463.518-2.89 91.095-40.69 200.54-4.15 288.519 15.83 38.079 35.97 59.086 28.62 102.756-6.14 36.561-19.85 69.509-22.43 107.049"/>
    <path stroke="#00E0FF" stroke-miterlimit="10" stroke-opacity=".35" stroke-width=".5" d="M2227.44-58.32c1.82 151.757.3 305.791-4.58 457.528-3.08 95.208-37.51 208.027-2.3 300.38 14.13 37.08 33.98 59.045 27.35 100.918-5.62 35.164-18.31 66.953-20.49 103.036"/>
    <path stroke="#00E0FF" stroke-miterlimit="10" stroke-opacity=".35" stroke-width=".5" d="M2250.16-58.32c.88 86.481-6.37 172.803-6.45 259.325 0 64.477.54 129.373-1.48 193.81-3.1 98.662-33.34 213.978.56 309.944 12.77 36.103 32.12 59.086 25.98 99.302-5.14 33.945-16.83 64.716-18.69 99.481"/>
    <path stroke="#00E0FF" stroke-miterlimit="10" stroke-opacity=".35" stroke-width=".5" d="M2272.89-58.32c.5 85.383-9.42 170.327-9.74 255.791-.26 64.716-.36 129.792-2.25 194.409-3 101.478-28.33 218.53 4.29 317.372 11.61 35.184 30.2 59.186 24.69 97.844-4.68 32.847-15.45 62.799-17.01 96.406"/>
    <path stroke="#00E0FF" stroke-miterlimit="10" stroke-opacity=".35" stroke-width=".5" d="M2295.61-58.32c0 84.265-12.89 167.731-13.51 252.037-.48 65.455-1.38 131.09-3.12 196.525-2.78 103.715-22.56 221.806 8.78 322.884 10.65 34.365 28.3 59.305 23.3 96.686-4.28 31.948-14.15 61.142-15.47 93.73"/>
    <path stroke="#00E0FF" stroke-miterlimit="10" stroke-opacity=".35" stroke-width=".5" d="M2318.32-58.32c-.68 83.147-16.69 164.836-17.63 248.163-.76 66.613-2.52 133.307-4 199.92-2.46 105.452-16.25 223.922 13.85 326.698 9.85 33.606 26.4 59.445 21.87 95.647-3.88 31.05-12.9 59.764-13.99 91.434"/>
    <path stroke="#00E0FF" stroke-miterlimit="10" stroke-opacity=".35" stroke-width=".5" d="M2341.04-58.32c-1.44 82.088-20.78 161.881-21.98 244.249-1.06 68.131-3.74 136.242-5.06 204.353-2 106.71-9.49 225.001 19.39 328.954 9.15 32.988 24.48 59.625 20.38 94.809-3.53 30.351-11.69 58.606-12.67 89.497"/>
    <path stroke="#00E0FF" stroke-miterlimit="10" stroke-opacity=".35" stroke-width=".5" d="M2363.77-58.32c-2.26 81.13-25.13 158.826-26.71 240.375-1.38 69.889-5.03 139.777-5.99 209.665-1.54 107.568-2.44 225.12 25.2 329.873 8.6 32.567 22.31 59.684 18.89 94.089-2.94 29.733-10.55 57.688-11.39 87.86"/>
    <path stroke="#00E0FF" stroke-miterlimit="10" stroke-opacity=".35" stroke-width=".5" d="M2386.49-58.342c-3.14 80.292-29.5 155.751-31.42 236.642-1.7 71.885-6.35 143.67-6.99 215.535-.94 108.067 4.83 224.421 31.24 329.613 7.99 32.089 20.4 59.904 17.32 93.55-2.65 29.214-9.45 56.929-10.17 86.542"/>
    <path stroke="#00E0FF" stroke-miterlimit="10" stroke-opacity=".35" stroke-width=".5" d="M2409.19-58.342c-3.99 79.613-33.97 152.736-36.11 233.127-2 73.882-7.7 147.764-8 221.786-.28 108.287 12.18 222.983 37.3 328.375 7.55 31.689 18.49 60.143 15.75 93.131-2.38 28.794-8.4 56.33-9.02 85.463"/>
    <path stroke="#00E0FF" stroke-miterlimit="10" stroke-opacity=".35" stroke-width=".5" d="M2431.92-58.342c-4.84 79.094-38.38 149.76-40.75 229.913-2.24 75.978-9 152.156-8.72 228.195.38 108.246 19.45 220.966 43.23 326.358 7.08 31.35 16.55 60.383 14.13 92.831-2.12 28.435-7.37 55.911-7.89 84.585"/>
    <path stroke="#00E0FF" stroke-miterlimit="10" stroke-opacity=".35" stroke-width=".5" d="M2454.56-58.342c-5.57 78.794-42.71 146.905-45.11 227.157-2.33 78.035-10.21 156.41-9.43 234.505 1.1 108.047 26.58 218.491 48.97 323.762 13.43 63.159 6.67 113.079 5.65 176.538"/>
    <path stroke="#00E0FF" stroke-miterlimit="10" stroke-opacity=".35" stroke-width=".5" d="M2477.35-58.342c-3.34 41.454-16.49 75.1-30.78 113.479-13.87 37.36-17.35 71.685-18.57 111.242-2.46 79.972-11.31 160.503-9.99 240.515 1.78 107.688 33.44 215.655 54.3 320.747 12.25 61.742 5.88 113.818 5.04 175.899"/>
    <path stroke="#00E0FF" stroke-miterlimit="10" stroke-opacity=".35" stroke-width=".5" d="M2500.07-58.342c-3.66 41.494-17.69 74.062-33.13 112.001-15.15 37.22-18.73 71.066-19.99 110.923-2.52 81.709-12.19 164.217-10.37 245.986 2.39 107.229 39.97 212.68 59.12 317.493 11.07 60.483 5.05 114.736 4.35 175.439"/>
    <path stroke="#00E0FF" stroke-miterlimit="10" stroke-opacity=".35" stroke-width=".5" d="M2522.8-58.342c-3.88 41.733-18.69 73.343-35.24 110.963-16.35 37.16-19.99 70.607-21.17 110.823-2.49 83.206-12.81 167.412-10.53 250.659 2.9 106.749 45.97 209.664 63.26 314.257 9.85 59.365 4.22 115.555 3.68 175.16"/>
    <path stroke="#00E0FF" stroke-miterlimit="10" stroke-opacity=".35" stroke-width=".5" d="M2545.52-58.342c-4 42.153-19.49 72.944-37.03 110.444-17.39 37.16-20.93 70.327-22.09 110.922-2.42 84.425-13.09 169.928-10.49 254.373 3.3 106.231 51.36 206.71 66.65 311.143 8.54 58.426 3.34 116.274 2.96 174.98"/>
    <path stroke="#00E0FF" stroke-miterlimit="10" stroke-opacity=".35" stroke-width=".5" d="M2568.25-58.32c-4 42.691-19.99 72.903-38.46 110.483-18.27 37.26-21.66 70.288-22.74 111.282-2.22 85.244-12.93 171.546-10.14 256.829 3.48 105.831 56.11 204.034 69.08 308.387 7.15 57.708 2.46 116.833 2.26 174.841"/>
    <path stroke="#00E0FF" stroke-miterlimit="10" stroke-opacity=".35" stroke-width=".5" d="M2590.97-58.32c-3.88 43.43-20.31 73.382-39.43 111.322-18.93 37.34-22.13 70.347-23.03 111.821-2 85.643-12.29 172.165-9.49 257.828 3.44 105.371 60.1 201.837 70.41 306.19 5.68 57.248 1.58 117.153 1.58 174.721"/>
    <path stroke="#00E0FF" stroke-miterlimit="10" stroke-opacity=".35" stroke-width=".5" d="M2613.71-58.3c-2.31 45.506-18.52 75.359-38.99 114.496-20.09 38.439-21.98 68.65-20.36 111.242 3.23 86.023-12.32 171.506-8.76 257.588 4.36 105.152 60.76 199.302 68.19 303.615 4.1 57.787-.6 116.893-.1 174.84"/>
    <path stroke="#00E0FF" stroke-miterlimit="10" stroke-opacity=".35" stroke-width=".5" d="M2636.44-58.281c-.58 47.584-16.39 77.556-37.97 118.13-21.07 39.498-21.35 67.173-17.99 110.784 6.45 85.383-16.17 170.906-13.07 256.609 3.81 105.092 65.33 196.806 71.39 300.959 3.38 58.187-3.02 117.033-2.3 175.3"/>
    <path stroke="#00E0FF" stroke-miterlimit="10" stroke-opacity=".35" stroke-width=".5" d="M2659.2-58.242c1.28 49.64-13.99 79.872-36.65 122.065-21.85 40.555-20.29 65.994-15.99 110.443 7.99 84.764-24.64 169.589-21.89 254.932 3.44 105.572 73.37 193.89 79.45 298.243 3.42 58.567-5.66 117.433-4.94 176.059"/>
    <path stroke="#00E0FF" stroke-miterlimit="10" stroke-opacity=".35" stroke-width=".5" d="M2681.95-58.22c3.26 51.657-11.29 82.467-34.9 126.277-22.4 41.594-18.76 65.056-14.35 110.204 8.32 84.824-37.19 167.073-34.61 252.656 3.19 106.709 84.36 190.476 91.73 295.528 4.16 59.025-8.49 118.051-7.99 177.096"/>
    <path stroke="#00E0FF" stroke-miterlimit="10" stroke-opacity=".35" stroke-width=".5" d="M2704.71-58.201c5.3 53.634-8.45 85.084-32.84 130.71-22.76 42.593-16.84 64.318-12.89 110.025 7.44 85.763-53.26 163.219-50.76 249.9 3.12 108.387 97.93 186.682 107.7 292.712 5.52 59.545-11.47 118.81-11.35 178.355"/>
    <path stroke="#00E0FF" stroke-miterlimit="10" stroke-opacity=".35" stroke-width=".5" d="M2727.46-58.162c7.41 55.551-5.42 87.86-30.5 135.284-22.95 43.51-14.55 63.897-11.63 109.824 5.55 87.5-72.23 158.187-69.74 246.705 3.12 110.444 113.53 182.808 126.7 289.957 7.39 60.084-14.59 119.808-14.99 179.812"/>
    <path stroke="#00E0FF" stroke-miterlimit="10" stroke-opacity=".35" stroke-width=".5" d="M2750.2-58.14c9.53 57.408-2.28 90.475-27.98 139.996-7.39 14.277-16.73 29.353-18.87 45.686-3.11 23.583 7.58 40.775 8.3 64.138 2.76 89.696-93.54 152.256-90.96 243.171 3.18 112.58 130.85 179.094 148.12 287.221 9.67 60.543-17.77 120.906-18.85 181.43"/>
    <path stroke="#00E0FF" stroke-miterlimit="10" stroke-opacity=".35" stroke-width=".5" d="M2772.97-58.102c11.65 59.206.9 93.191-25.27 144.749-7.33 14.277-16.69 29.593-18.5 46.026-2.58 23.203 9.09 40.675 8.87 63.718-.86 91.854-116.56 145.967-113.92 239.418 3.26 114.516 149.54 175.838 171.38 284.545 12.21 60.842-21 122.244-22.82 183.147"/>
    <path stroke="#00E0FF" stroke-miterlimit="10" stroke-opacity=".35" stroke-width=".5" d="M2795.71-58.082c15.07 66.054.24 98.822-26.24 156.53-6.78 14.736-13.63 28.474-14.29 45.088-.72 17.971 8.79 33.945 9.43 51.477 3.62 97.085-139.48 144.25-137.9 241.614.82 53.914 54.42 101.537 88.06 138.399 36.17 39.616 90.09 85.024 106.9 137.919 19.47 61.222-23.58 129.153-26.12 190.635"/>
    <path stroke="#00E0FF" stroke-miterlimit="10" stroke-opacity=".35" stroke-width=".5" d="M2818.46-58.041c17.34 67.991 3.37 101.418-23.43 161.362-6.63 14.856-13.45 28.574-13.69 45.288-.28 17.671 9.99 33.646 9.99 51.118 0 99.84-163.56 137.44-162.47 237.5.58 53.914 64.34 103.055 99.42 137.24 39.81 38.798 99.25 82.868 119.92 136.602 23.2 60.463-26.57 131.35-29.86 192.432"/>
    <path stroke="#00E0FF" stroke-miterlimit="10" stroke-opacity=".35" stroke-width=".5" d="M2841.22-58.022c19.57 69.889 6.47 103.954-20.65 166.115-6.51 14.956-13.29 28.654-13.13 45.447.16 17.332 11.05 33.367 10.39 50.739-1.99 51.478-71.45 96.027-105.22 125.939-29.66 26.258-81.95 62.999-81.75 107.548.32 54.033 74.65 104.473 110.79 136.142 43.47 38.099 108.28 80.811 132.81 135.364 26.8 59.604-29.52 133.586-33.54 194.229"/>
    <path stroke="#00E0FF" stroke-miterlimit="10" stroke-opacity=".35" stroke-width=".5" d="M2863.96-57.982c21.75 71.705 9.52 106.39-17.98 170.707-6.42 15.056-13.16 28.674-12.6 45.547.56 16.873 12.18 33.007 10.9 50.319-3.88 52.377-82.87 95.847-118.66 123.683-30.86 23.961-92.36 60.822-92.3 105.83 0 54.054 84.94 105.831 121.92 135.124 47.08 37.38 117.1 78.874 145.5 134.206 30.14 58.726-32.44 135.683-37.12 195.966"/>
    <path stroke="#00E0FF" stroke-miterlimit="10" stroke-opacity=".35" stroke-width=".5" d="M2886.73-57.96c23.28 71.245 13.85 107.827-13.99 172.483-6.36 14.737-13.59 28.175-13.53 44.709.06 16.533 12.33 31.949 11.99 47.923-1.26 57.169-95.84 102.297-135.67 129.533-28.52 19.509-101.93 59.145-100.67 101.837 1.56 52.576 94.8 105.272 129.91 130.891 50.35 36.681 138.83 82.328 165.61 142.412 13.87 31.11-.52 67.572-14.27 96.086-15.63 32.389-26.56 59.266-29.7 95.627"/>
    <path stroke="#00E0FF" stroke-miterlimit="10" stroke-opacity=".35" stroke-width=".5" d="M2909.47-57.941c24.69 71.306 18.23 111.302-11.71 176.617-6.64 14.477-13.59 28.355-13.23 44.689.36 16.334 13.53 31.709 12.95 47.404-2.18 57.907-107.07 102.157-148.04 127.436-28.74 17.752-111.38 57.408-110.06 100.499 1.58 52.836 104.33 106.231 139.7 130.132 53.19 35.943 147.9 80.372 177.5 141.394 15.25 31.37-.62 68.231-15.27 96.706-16.81 32.667-28.72 59.425-32.24 96.565"/>
    <path stroke="#00E0FF" stroke-miterlimit="10" stroke-opacity=".35" stroke-width=".5" d="M2932.24-57.902c26.46 72.663 21.08 113.438-9.64 180.431-6.59 14.417-13.67 28.215-13.01 44.529.66 15.974 14.71 31.45 13.99 46.945-2.62 58.646-117.26 101.957-159.11 125.539-28.98 16.374-119.76 55.711-118.44 99.301 1.62 53.275 112.64 106.949 148.3 129.493 55.62 35.204 156.19 78.575 188.19 140.516 16.33 31.629-.82 68.849-16.27 97.264-17.86 32.907-30.64 59.505-34.45 97.384"/>
    <path stroke="#00E0FF" stroke-miterlimit="10" stroke-opacity=".35" stroke-width=".5" d="M2954.96-57.88c28.12 73.881 23.79 115.434-7.87 183.905-6.62 14.317-13.83 27.955-12.91 44.249.9 15.775 15.88 31.111 15.25 46.426-2.5 59.185-126.46 101.837-168.61 123.922-29.34 15.355-126.83 54.013-125.51 98.303 1.62 53.913 119.37 107.428 155.41 128.993 57.54 34.465 163.73 76.997 197.35 139.777 17.06 31.949-1.12 69.409-17.21 97.843-18.79 33.087-32.34 59.545-36.34 98.064"/>
    <path stroke="#00E0FF" stroke-miterlimit="10" stroke-opacity=".35" stroke-width=".5" d="M2977.73-57.861c28.88 72.783 27.56 116.374-5.18 184.385-8 16.573-16.67 32.328-14.59 51.378 2 17.572 16.61 27.396 14.61 45.926-6 55.152-117.54 90.056-158.35 109.964-37.02 18.071-143.15 54.174-143.9 105.212-.88 52.836 115.4 103.834 152.53 125.28 43.61 25.299 88.4 49.021 130.79 76.378 27.64 17.851 69.61 39.936 82.85 71.525 11.85 28.235-4.48 62.959-18.13 87.34-19.71 35.224-36.84 62.66-41.03 103.834"/>
    <path stroke="#00E0FF" stroke-miterlimit="10" stroke-opacity=".35" stroke-width=".5" d="M3000.47-57.842c30.2 73.722 29.98 118.051-4.2 186.981-7.99 16.234-17.14 31.809-14.85 50.659 2.14 17.592 17.99 26.717 16.31 45.487-4.75 55.651-122.27 90.196-163.09 109.146-37.79 17.532-147.56 52.596-148.51 104.692-.98 53.814 118.11 103.834 155.89 125.081 44.79 25.119 91.28 48.342 134.59 76.018 27.98 17.971 70.99 39.277 84.34 71.446 11.77 28.354-4.96 63.338-18.87 87.58-20.28 35.343-37.97 62.54-42.11 104.253"/>
    <path stroke="#00E0FF" stroke-miterlimit="10" stroke-opacity=".35" stroke-width=".5" d="M3023.22-57.822c31.37 74.52 32.13 119.549-3.74 189.097-8.14 15.755-17.77 31.131-15.33 49.701 2.34 17.632 19.39 25.958 18.41 44.928-2.88 56.09-124.92 90.475-165.49 108.666-38.65 17.333-149.9 51.178-151.02 104.553-1.08 55.072 118.56 103.834 157.15 125.06 45.61 25 93.02 48.023 137.11 75.719 28.26 17.772 71.45 38.918 84.48 71.486 11.4 28.414-5.47 63.618-19.48 87.679-20.67 35.444-38.84 62.361-42.63 104.433"/>
    <path stroke="#00E0FF" stroke-miterlimit="10" stroke-opacity=".35" stroke-width=".5" d="M3045.9-57.842c29.98 73.543 29.7 118.251-3.72 187.341-7.87 16.254-16.91 31.949-14.63 50.798 2.14 17.532 17.69 26.698 15.99 45.428-4.97 55.791-122.59 89.856-163.59 108.746-37.97 17.472-148.08 52.336-148.95 104.672-.9 53.914 118.21 103.834 156.17 124.881 44.71 24.9 91.16 47.923 134.39 75.359 28.2 17.972 71.13 39.218 84.62 71.426 11.99 28.514-4.84 63.319-18.67 87.86-19.98 35.503-37.97 63.218-42.15 104.892"/>
    <path stroke="#00E0FF" stroke-miterlimit="10" stroke-opacity=".35" stroke-width=".5" d="M3068.6-57.861c28.48 72.424 27.3 116.853-3.65 185.343-7.6 16.753-15.99 32.828-13.87 51.917 1.99 17.512 16.14 27.376 13.89 45.927-6.7 55.311-118.9 89.257-160.17 108.906-37.3 17.751-144.89 53.554-145.61 104.872-.71 52.895 116.17 103.155 153.46 124.361 43.55 24.741 88.24 47.923 130.57 74.741 27.98 17.711 70.07 39.636 83.66 71.186 12.34 28.554-4.23 63.258-17.68 88.219-19.25 35.782-36.78 64.516-41.08 105.83"/>
    <path stroke="#00E0FF" stroke-miterlimit="10" stroke-opacity=".35" stroke-width=".5" d="M3091.29-57.902c27.64 73.342 23.88 116.553-4.74 185.882-5.99 14.637-12.79 28.754-11.65 45.028 1.08 15.336 15.43 31.27 14.35 46.406-4.28 59.545-129.79 100.18-172.9 121.805-28.74 14.437-130.97 53.595-129.11 97.604 2.25 53.674 121.55 105.831 157.67 126.758 58.7 33.826 162.85 73.881 198.54 136.002 18.55 32.288-.66 70.627-16.25 100.16-17.98 34.225-32.23 62.7-36.35 101.837"/>
    <path stroke="#00E0FF" stroke-miterlimit="10" stroke-opacity=".35" stroke-width=".5" d="M3113.97-57.922c25.99 71.885 21.75 115.256-4.47 183.706-5.74 14.936-12 29.433-10.94 45.807 1 15.336 14.25 31.689 12.82 46.965-5.5 59.006-123.08 99.481-166.25 122.264-27.98 14.817-126.35 55.012-124.38 97.964 2.42 52.416 116.46 104.453 151.9 125.559 57.16 34.065 155.33 73.722 190.33 134.485 18.57 32.228-.22 71.126-14.87 101.278-16.91 34.784-30.52 64.497-34.5 103.494"/>
    <path stroke="#00E0FF" stroke-miterlimit="10" stroke-opacity=".35" stroke-width=".5" d="M3136.68-57.941c24.44 70.327 19.68 113.937-4.2 181.25-5.42 15.235-11.21 30.052-10.21 46.525.94 15.436 13.15 32.069 11.49 47.544-6.28 58.287-115.48 98.742-158.37 122.764-27.48 15.375-120.68 56.35-118.66 98.343 2.44 51.158 109.92 102.656 144.62 124.121 55.06 34.166 147.06 73.563 180.68 132.768 18.28 32.188.12 71.885-13.46 102.556-15.66 35.503-28.56 66.534-32.27 105.591"/>
    <path stroke="#00E0FF" stroke-miterlimit="10" stroke-opacity=".35" stroke-width=".5" d="M3159.36-57.982c23.31 70.607 16.65 113.957-4.88 181.709-5.01 15.815-9.99 31.07-8.21 47.923 1.78 16.853 12.95 32.588 9.03 50.04-11.99 53.914-103.33 90.635-144.34 115.476-33.65 20.387-110.48 54.912-112.76 101.158-2.48 50.379 102.59 102.835 137.41 125.499 52.36 34.046 124.87 69.01 161.21 121.985 22.7 33.107 6.13 73.662-7.16 107.688-14.51 37.081-27.14 70.028-30.64 110.104"/>
    <path stroke="#00E0FF" stroke-miterlimit="10" stroke-opacity=".35" stroke-width=".5" d="M3182.07-58.002c21.58 68.77 14.85 112.78-4.46 179.114-4.68 15.974-9.12 31.669-7.56 48.602 1.56 16.933 12 33.027 8 50.539-11.63 52.856-94.82 89.856-134.75 115.995-31.24 20.427-105.23 57.088-105.31 101.557 0 50.579 92.22 99.182 127.79 123.802 49.07 33.946 116.33 68.69 149.78 120.048 21.67 33.227 5.84 74.741-5.99 109.166-13.09 37.939-24.75 72.404-27.84 112.739"/>
    <path stroke="#00E0FF" stroke-miterlimit="10" stroke-opacity=".35" stroke-width=".5" d="M3204.75-58.022c19.87 66.894 13.17 111.622-4 176.518-4.31 16.314-8.35 32.249-6.89 49.281 1.46 17.033 10.79 33.407 7.19 50.999-10.53 51.677-86.18 89.277-124.41 116.534-30.32 21.625-97.25 58.406-97.27 101.957 0 49.341 82.94 96.525 117.36 121.925 45.52 33.606 107.34 68.37 137.58 118.011 20.37 33.446 5.44 75.878-5 110.743-11.67 38.838-22.24 74.84-24.86 115.555"/>
    <path stroke="#00E0FF" stroke-miterlimit="10" stroke-opacity=".35" stroke-width=".5" d="M3227.46-58.06c18.14 65.015 11.55 110.523-3.54 173.921-4 16.554-7.58 32.788-6.26 49.921 1.32 17.132 9.88 33.945 6.5 51.457-9.62 50.519-76.97 88.359-113.48 117.033-29.23 22.963-88.76 59.725-88.74 102.336 0 48.024 73.25 93.691 106.32 120.088 41.75 33.307 97.94 68.072 124.72 115.935 18.9 33.766 4.99 77.276-4 112.4-10.21 39.757-19.65 77.257-21.76 118.451"/>
    <path stroke="#00E0FF" stroke-miterlimit="10" stroke-opacity=".35" stroke-width=".5" d="M3250.14-58.082c16.41 63.1 9.99 109.445-3.08 171.306-7.61 35.943 6.18 68.63.32 102.496-8.51 49.261-67.67 87.32-102.07 117.472-27.98 24.461-79.94 61.043-79.94 102.676 0 46.665 63.35 90.735 94.83 118.251 37.85 33.107 88.16 67.891 111.4 113.918 17.31 34.265 4.54 78.534-3.13 114.077-8.8 40.695-17.03 79.633-18.67 121.386"/>
    <path stroke="#00E0FF" stroke-miterlimit="10" stroke-opacity=".35" stroke-width=".5" d="M3272.84-58.121c13.73 57.728 10.34 103.415-.86 160.463-3.41 17.472-7.69 35.424-7.23 53.395.56 22.204 9.99 41.933 4.66 64.257-10.48 44.249-55.85 79.493-86.6 109.585-24.75 24.201-76.49 66.194-75.25 105.671 1.42 45.607 59.26 90.795 88.26 119.209 33.53 32.848 80.58 68.511 96.23 114.417 23.41 68.75-17.47 162.94-19.45 234.625"/>
    <path stroke="#00E0FF" stroke-miterlimit="10" stroke-opacity=".35" stroke-width=".5" d="M3295.53-58.14c12.11 56.03 8.81 102.276-.62 157.747-6.78 39.936 5.67 80.971-2 118.81-8.71 42.951-47.39 78.515-75.17 109.824-23.22 26.239-66.19 67.153-65.23 105.931 1.12 44.229 48.7 87.5 75.62 117.492 29.8 33.247 69.58 68.61 82.69 112.62 21.38 71.685-14.27 164.976-15.47 239.118"/>
    <path stroke="#00E0FF" stroke-miterlimit="10" stroke-opacity=".35" stroke-width=".5" d="M3318.21-58.162c10.5 54.373 7.38 101.178-.42 155.252-5.77 40.195 5.12 81.25-1.41 119.968-13.48 79.872-120.32 133.506-118.84 216.094 1.58 87.86 111.42 144.429 132.29 226.977 18.92 74.861-11.3 166.574-11.8 243.371"/>
    <path stroke="#00E0FF" stroke-miterlimit="10" stroke-opacity=".35" stroke-width=".5" d="M3340.92-58.201c8.83 52.815 5.99 100.14-.24 152.756-4.82 40.595 4.42 81.589-.88 121.146-10.51 78.394-98.21 135.783-97.37 216.154.86 84.166 90.31 144.05 106.78 224.361 15.99 78.056-8.57 167.872-8.45 247.265"/>
    <path stroke="#00E0FF" stroke-miterlimit="10" stroke-opacity=".35" stroke-width=".5" d="M3363.6-58.22c7.18 51.357 4.7 99.08-.1 150.359-3.81 40.954 3.66 82.009-.4 122.324-7.67 76.578-76.53 138.059-76.27 215.935.26 80.591 69.96 144.229 82.21 222.324 12.71 80.951-6.18 168.97-5.56 250.759"/>
    <path stroke="#00E0FF" stroke-miterlimit="10" stroke-opacity=".35" stroke-width=".5" d="M3386.31-58.242c5.47 50.06 3.46 98.023 0 148.063-2.86 41.334 2.8 82.568 0 123.542-5.14 74.661-55.6 140.076-55.78 215.396-.16 77.496 50.48 144.888 58.9 221.007 9.19 83.286-4 170.008-3.18 253.714"/>
    <path stroke="#00E0FF" stroke-miterlimit="10" stroke-opacity=".35" stroke-width=".5" d="M3408.99-58.281c6.76 88.179 3.88 182.328.24 270.747-2.98 72.843-35.76 141.334-36.13 214.477-.38 75.24 32.19 145.767 37.23 220.487 5.72 84.904-2.32 171.007-1.4 256.071M3431.7-58.3c3.61 89.496 1.85 180.511.25 270.067-1.25 71.386-17.22 141.774-17.56 213.12-.36 74.081 15.35 147.004 17.58 220.946 2.58 85.863-.97 171.825-.31 257.588"/>
    <path stroke="#00E0FF" stroke-miterlimit="10" stroke-opacity=".35" stroke-width=".5" d="M3454.38 884.63c-287.8-1.997-575.61.939-863.41 1.638-287.8.698-575.61-3.475-863.41-1.638M3454.38 865.702c-287.64-2.496-575.73 4.892-863.41 5.87-288.08.959-575.31-9.085-863.41-5.87M3454.38 846.912c-153.43-1.078-306.73 8.526-460.18 8.666-134.41.14-268.8 3.135-403.21 3.574-132.57.42-265.28 3.634-397.59-7.009-155.89-12.54-309.65-7.468-465.84-5.231"/>
    <path stroke="#00E0FF" stroke-miterlimit="10" stroke-opacity=".35" stroke-width=".5" d="M3454.38 828.061c-151.56-.439-302.65 13.978-454.27 14.517-136.37.519-272.67 5.411-409.04 5.711-131.11.28-262.66 2.995-393.15-11.981-157.69-18.111-312.07-10.842-470.34-8.227"/>
    <path stroke="#00E0FF" stroke-miterlimit="10" stroke-opacity=".35" stroke-width=".5" d="M3454.38 809.192c-149.5.519-297.92 20.108-447.51 21.226-138.61 1.039-277.09 7.988-415.72 8.147-129.55 0-260.1 1.857-388.55-17.671-159.4-24.242-314.55-14.517-475.02-11.702"/>
    <path stroke="#00E0FF" stroke-miterlimit="10" stroke-opacity=".35" stroke-width=".5" d="M3454.38 790.341c-147.34 1.598-292.78 26.737-440.32 28.435-140.98 1.597-281.81 10.942-422.83 10.743-128.11-.16-257.96.439-384.26-23.663-160.87-30.711-316.82-18.43-479.39-15.515"/>
    <path stroke="#00E0FF" stroke-miterlimit="10" stroke-opacity=".35" stroke-width=".5" d="M3454.38 771.491c-145.24 2.716-287.46 33.526-432.98 35.763-143.41 2.196-286.65 13.858-430.09 13.398-126.97-.399-256.5-.998-380.82-29.612-161.89-37.281-318.48-22.504-482.91-19.569"/>
    <path stroke="#00E0FF" stroke-miterlimit="10" stroke-opacity=".35" stroke-width=".5" d="M3454.38 752.623c-143.28 3.774-282.17 40.136-425.89 42.871-145.74 2.756-291.32 16.634-437.12 15.975-126.29-.559-256.01-2.157-378.7-35.104-162.47-43.67-319.16-26.637-485.07-23.742"/>
    <path stroke="#00E0FF" stroke-miterlimit="10" stroke-opacity=".35" stroke-width=".5" d="M3454.38 733.772c-141.56 4.572-277.19 46.206-419.33 49.361-147.9 3.254-295.66 19.109-443.7 18.35-126.23-.639-256.74-2.735-378.38-39.776-162.61-49.521-318.36-30.771-485.41-27.955"/>
    <path stroke="#00E0FF" stroke-miterlimit="10" stroke-opacity=".35" stroke-width=".5" d="M3454.38 714.922c-140.16 5.072-272.77 51.418-413.72 54.872-149.9 3.655-299.37 21.067-449.29 20.428-126.95-.539-258.94-2.456-380.4-43.271-74.65-25.08-146.72-40.475-225.85-41.933-85.94-1.637-171.68 8.506-257.58 9.984"/>
    <path stroke="#00E0FF" stroke-miterlimit="10" stroke-opacity=".35" stroke-width=".5" d="M3454.38 695.973c-75.61 2.795-146.16 20.686-219.37 37.759-63.4 14.796-125.03 19.629-189.87 21.306-151.34 3.894-302.29 22.364-453.69 22.065-128.39-.26-263.18-.659-385.24-45.168-74.11-27.037-145.04-44.549-224.38-46.386-84.89-1.877-169.51 9.106-254.25 10.424"/>
    <path stroke="#00E0FF" stroke-miterlimit="10" stroke-opacity=".35" stroke-width=".5" d="M3454.38 677.202c-75.43 2.516-144.86 21.366-217.51 39.497-63.12 15.775-124.2 20.367-189.05 21.965-152.36 3.973-304.17 22.883-456.65 23.202-131.07.3-269.12 2.397-393.35-45.087-73.55-28.115-142.26-48.423-221.67-50.58-82.96-2.176-165.67 9.585-248.57 10.983"/>
    <path stroke="#00E0FF" stroke-miterlimit="10" stroke-opacity=".35" stroke-width=".5" d="M3454.38 658.334c-75.79 2.376-145.32 21.545-218.21 40.056-62.96 15.974-123.68 20.347-188.37 21.964-152.48 3.994-304.25 22.624-456.83 23.403-134.67.679-276.27 4.672-404.5-42.812-72.79-26.956-138.89-49.64-217.43-52.396-80.55-2.815-160.95 8.706-241.48 9.745"/>
    <path stroke="#00E0FF" stroke-miterlimit="10" stroke-opacity=".35" stroke-width=".5" d="M3454.38 639.484c-78.43 3.294-152.02 21.825-228 39.497-63.36 14.716-124.62 19.688-189.47 21.525-149.4 4.193-298.12 22.245-447.7 22.165-136.97 0-279.19.419-411.5-39.577-71.95-21.725-137.3-43.67-213.19-47.504-78.95-3.994-158.03 4.113-237 3.894"/>
    <path stroke="#00E0FF" stroke-miterlimit="10" stroke-opacity=".35" stroke-width=".5" d="M3454.36 620.633c-148.54 7.148-289.8 54.273-438.86 58.526-143.56 4.093-286.44 20.827-430.21 19.968-137.76-.879-278.85-3.894-413.47-36.042-70.9-16.913-136.59-37.181-210.02-41.674-77.95-4.792-156.21.34-234.26-.718"/>
    <path stroke="#00E0FF" stroke-miterlimit="10" stroke-opacity=".35" stroke-width=".5" d="M3454.34 601.764c-157.89 7.987-310.35 50.599-468.7 54.912-135.53 3.694-270.3 18.53-406 16.753-137.25-1.797-275.97-8.267-411.34-32.268-69.95-12.4-136.35-30.272-207.68-35.084-77.55-5.232-155.43-2.716-233.08-4.313"/>
    <path stroke="#00E0FF" stroke-miterlimit="10" stroke-opacity=".35" stroke-width=".5" d="M3454.3 582.914c-169.48 8.486-335.11 46.186-504.96 50.379-125.77 3.135-250.72 15.556-376.7 12.96-135.53-2.796-271.17-12.66-405.72-28.415-69.09-8.087-136.41-23.003-206.1-27.955-77.67-5.332-155.55-5.152-233.28-6.969"/>
    <path stroke="#00E0FF" stroke-miterlimit="10" stroke-opacity=".35" stroke-width=".5" d="M3454.26 564.064c-182.62 8.826-362.63 41.514-545.63 45.268-114.92 2.356-228.86 11.981-343.94 8.706-279.93-8.107-557.28-47.324-837.23-53.914"/>
    <path stroke="#00E0FF" stroke-miterlimit="10" stroke-opacity=".35" stroke-width=".5" d="M3454.2 545.194c-299.56 13.838-597.25 55.551-897.79 44.089-276.47-10.563-552.16-37.939-828.87-44.109"/>
    <path stroke="#00E0FF" stroke-miterlimit="10" stroke-opacity=".35" stroke-width=".5" d="M3454.16 526.344c-301.95 13.359-603.59 48.682-906.14 34.105-125.66-5.99-250.97-25.738-376.92-17.731-147.48 9.485-296.04-13.499-443.56-16.474"/>
    <path stroke="#00E0FF" stroke-miterlimit="10" stroke-opacity=".35" stroke-width=".5" d="M3454.12 507.495c-304.45 13.079-609.34 42.472-914.1 24.561-121.91-7.169-243.83-30.172-365.87-14.877-148.71 18.631-297.61-7.208-446.61-9.724"/>
    <path stroke="#00E0FF" stroke-miterlimit="10" stroke-opacity=".35" stroke-width=".5" d="M3454.08 488.624c-306.85 13.139-614.4 37.321-921.25 15.975-118.52-8.267-236.96-34.725-355.42-12.62-150.3 28.075-298.63-1.098-449.87-3.355"/>
    <path stroke="#00E0FF" stroke-miterlimit="10" stroke-opacity=".35" stroke-width=".5" d="M3454.06 469.775c-308.93 13.598-618.68 33.486-927.17 8.726-115.92-9.306-230.84-39.557-346.36-11.043-152.07 37.56-298.97 4.533-452.97 2.277"/>
    <path stroke="#00E0FF" stroke-miterlimit="10" stroke-opacity=".35" stroke-width=".5" d="M3454.04 450.925c-310.35 14.597-621.97 31.27-931.36 3.395-114.3-10.304-226.09-45.288-339.51-10.304-153.72 47.404-298.7 9.465-455.61 6.869"/>
    <path stroke="#00E0FF" stroke-miterlimit="10" stroke-opacity=".35" stroke-width=".5" d="M3454.02 432.075c-259.28 13.559-519.38 17.972-779.03 16.434-51.96-.299-102.75-10.882-154.55-15.974-114.16-11.282-222.67-51.378-335.65-10.544-69.61 25.18-130.31 37.74-205.02 33.387-84.44-5.012-167.49-21.505-252.21-23.363"/>
    <path stroke="#00E0FF" stroke-miterlimit="10" stroke-opacity=".35" stroke-width=".5" d="M3454.02 413.204c-259.36 13.978-519.36 16.634-779.09 16.494-51.96 0-102.99-11.402-154.77-16.713-114.58-11.761-221.55-52.117-334.99-10.284-69.95 25.819-129.91 38.798-205.38 33.806-84.5-5.571-167.31-22.943-252.23-23.362"/>
    <path stroke="#00E0FF" stroke-miterlimit="10" stroke-opacity=".35" stroke-width=".5" d="M3454.04 394.455c-254.97 12.939-510.59 17.013-765.88 16.753-56.22 0-111.92-12.919-167.88-18.67-114.5-11.741-221.61-45.927-335.13-7.668-70.52 23.802-131.65 34.425-206.58 28.854-84.06-6.37-166.37-22.644-251.03-19.449"/>
    <path stroke="#00E0FF" stroke-miterlimit="10" stroke-opacity=".35" stroke-width=".5" d="M3454.08 375.485c-247.29 11.981-495.48 18.531-743.07 17.073-63.74-.379-126.8-15.575-190.19-21.965-114.56-11.581-222.15-38.898-335.67-3.794-70.91 21.965-133.33 30.132-207.86 23.962-83.62-6.989-165.49-22.264-249.75-15.375"/>
    <path stroke="#00E0FF" stroke-miterlimit="10" stroke-opacity=".35" stroke-width=".5" d="M3454.1 356.616c-237.04 10.982-475.49 20.527-712.87 17.372-73.65-.978-146.3-19.089-219.57-26.358-114.7-11.381-223.03-31.07-336.51 1.059-71.25 20.167-134.95 25.958-209.04 19.129-83.32-7.608-164.81-21.945-248.59-11.302"/>
    <path stroke="#00E0FF" stroke-miterlimit="10" stroke-opacity=".35" stroke-width=".5" d="M3454.14 337.766c-225.09 9.984-452.11 22.484-677.54 17.651-85.28-1.817-169.04-23.322-253.82-31.509-114.99-11.103-224.11-22.724-337.61 6.649-71.59 18.53-136.57 21.705-210.28 14.357-83-8.267-164.21-21.745-247.37-7.288"/>
    <path stroke="#00E0FF" stroke-miterlimit="10" stroke-opacity=".35" stroke-width=".5" d="M3454.2 318.895c-212.17 9.145-426.79 24.201-639.24 17.971-97.94-2.875-193.61-28.115-291.02-37.181-115.37-10.762-225.09-13.977-338.73 12.72-153.42 35.943-305.51-27.456-457.69 6.35"/>
    <path stroke="#00E0FF" stroke-miterlimit="10" stroke-opacity=".35" stroke-width=".5" d="M3454.24 300.026c-199.06 8.247-400.89 25.539-600.21 18.231-110.66-3.994-218.63-33.107-328.81-43.071-115.75-10.483-226.23-5.112-339.99 19.029-152.88 32.349-307.21-35.343-457.73 5.651"/>
    <path stroke="#00E0FF" stroke-miterlimit="10" stroke-opacity=".35" stroke-width=".5" d="M3454.28 281.176c-186.47 7.308-375.98 26.777-562.65 18.47-123-5.471-242.68-38.139-365.12-48.961-116.16-10.204-227.16 3.614-341.18 25.299-152.48 29.054-308.95-43.271-457.83 4.992"/>
    <path stroke="#00E0FF" stroke-miterlimit="10" stroke-opacity=".35" stroke-width=".5" d="M3454.32 262.306c-177.04 6.349-357.31 28.314-534.47 18.33-132.55-7.448-261.35-43.33-393.54-54.253-114.4-9.445-223.34 11.861-335.57 30.571-153.45 25.679-315.22-50.938-463.26 5.132"/>
    <path stroke="#00E0FF" stroke-miterlimit="10" stroke-opacity=".35" stroke-width=".5" d="M3454.36 243.436c-167.88 5.391-338.79 28.714-506.81 18.47-141.59-8.606-279.03-47.763-420.28-59.105-114.94-9.245-223.84 19.788-336.49 36.182-153.05 22.244-317.06-59.325-463.3 4.233"/>
    <path stroke="#00E0FF" stroke-miterlimit="10" stroke-opacity=".35" stroke-width=".5" d="M3454.38 224.586c-161.63 4.273-325.54 28.954-487.19 18.57-147.9-9.505-291.5-51.398-439.12-63.079-115.5-9.145-223.84 27.117-337.29 40.995-152.63 18.67-318.92-67.892-463.32 3.254"/>
    <path stroke="#00E0FF" stroke-miterlimit="10" stroke-opacity=".35" stroke-width=".5" d="M3454.4 205.716c-158.67 3.075-319.14 29.153-477.79 18.65-150.98-9.984-297.34-53.914-448-65.895-115.92-9.225-223.85 33.687-337.77 44.729-152.27 14.816-320.98-76.318-463.38 2.236"/>
    <path stroke="#00E0FF" stroke-miterlimit="10" stroke-opacity=".35" stroke-width=".5" d="M3454.38 186.788c-157.89 1.737-316.76 27.955-474.72 19.069-151.99-8.546-298.91-54.952-450.35-67.392-118.28-9.724-227.08 40.435-343.76 47.364-150.2 8.946-319.17-84.904-458.09.739"/>
    <path stroke="#00E0FF" stroke-miterlimit="10" stroke-opacity=".35" stroke-width=".5" d="M3454.38 167.998c-160.79 3.075-324.1 33.346-484.77 22.204-148.54-10.283-291.8-57.588-439.86-70.048-118.02-9.984-227.84 40.855-344.36 47.045-150.54 7.967-317.55-82.089-457.93.519"/>
    <path stroke="#00E0FF" stroke-miterlimit="10" stroke-opacity=".35" stroke-width=".5" d="M3454.36 149.148c-162.81 5.511-332.11 41.693-494.7 26.338-144.08-13.598-283.65-60.384-427.71-72.424-116.32-9.745-226.63 37.939-341.57 44.908-152.75 9.385-318.62-75.34-462.92.878"/>
    <path stroke="#00E0FF" stroke-miterlimit="10" stroke-opacity=".35" stroke-width=".5" d="M3454.36 130.298c-89.34 4.353-178.28 13.159-267.32 21.386-74.83 6.929-151.57 17.631-226.58 9.684-142.7-15.136-281.47-61.761-424.23-73.882-116.96-9.984-229.84 35.004-345.77 41.654-153.37 8.806-316.5-68.151-462.98.898"/>
    <path stroke="#00E0FF" stroke-miterlimit="10" stroke-opacity=".35" stroke-width=".5" d="M3454.38 111.447c-88.44 5.611-176.38 15.176-264.52 24.261-74.23 7.628-150.46 19.769-224.92 11.282-142.11-16.114-280.89-61.92-423.2-74.022-118.07-9.984-233.84 31.47-351.14 37.461-153.89 7.987-314.76-61.103-463.12.818"/>
    <path stroke="#00E0FF" stroke-miterlimit="10" stroke-opacity=".35" stroke-width=".5" d="M3454.38 92.598c-87.94 6.789-175.66 17.152-263.38 27.017-70.13 7.987-142.88 21.026-213.33 13.079-144.09-16.274-284.95-60.563-429.17-73.063-121.56-10.524-242.12 27.675-363.15 32.248-152.5 5.75-309.37-53.554-457.85.5"/>
    <path stroke="#00E0FF" stroke-miterlimit="10" stroke-opacity=".35" stroke-width=".5" d="M3454.38 73.728c-86.22 7.647-172.08 18.43-258.02 28.734-69.16 8.306-140.77 22.084-210.28 14.177-144.3-16.394-285.98-58.127-430.55-70.347-123.43-10.444-246.87 23.222-370.02 26.897-152.66 4.552-308.33-46.546-458.01.339"/>
    <path stroke="#00E0FF" stroke-miterlimit="10" stroke-opacity=".35" stroke-width=".5" d="M3454.4 54.877c-84.46 8.107-168.4 19.01-252.57 29.473-68.19 8.487-138.5 22.384-207.14 14.797-144.54-15.975-287.02-54.354-431.86-66.055-125.51-10.044-251.73 18.69-377.12 21.406-152.86 3.315-307.59-39.597-458.21.2"/>
    <path stroke="#00E0FF" stroke-miterlimit="10" stroke-opacity=".35" stroke-width=".5" d="M3454.4 36.029c-82.72 8.287-165.19 18.81-247.71 28.953-67.39 8.387-136.55 21.965-204.34 14.857-144.54-14.856-287.54-49.182-432.37-60.044-127.71-9.585-256.38 14.377-384.07 15.974-152.84 1.997-307.07-32.747-458.39 0"/>
    <path stroke="#00E0FF" stroke-miterlimit="10" stroke-opacity=".35" stroke-width=".5" d="M3454.42 17.158c-81.54 7.987-162.89 17.652-244.25 27.137-66.88 7.767-135.03 20.227-202.3 13.977-144.03-13.259-286.97-42.532-431.23-52.196-129.91-8.686-260.66 10.223-390.55 11.022-152.88.979-306.65-25.998-458.57-.04"/>
    <path stroke="#00E0FF" stroke-miterlimit="10" stroke-opacity=".35" stroke-width=".5" d="M3454.42-1.712c-81.06 7.028-161.89 15.375-242.91 23.562-66.74 6.73-134.37 17.492-201.33 12.3-142.82-11.102-284.86-34.445-427.7-42.452-131.77-7.408-264.38 6.51-396.23 6.65-152.9.18-306.33-19.41-458.67-.16"/>
    <path stroke="#00E0FF" stroke-miterlimit="10" stroke-opacity=".35" stroke-width=".5" d="M3454.42-20.58c-146.66 9.824-299.74 36.062-446.6 27.655-140.36-8.107-280.36-24.76-420.83-30.67-133.39-5.612-267.3 3.473-400.74 3.194-152.9-.3-306.06-12.9-458.71-.18"/>
    <path fill="#00334F" d="M3454-59h1728v963H3454z"/>
    <path stroke="#00E0FF" stroke-miterlimit="10" stroke-opacity=".35" stroke-width=".5" d="M5181.38-58.32c.29 320.607.29 641.214 0 961.821-575.61-.133-1151.21-.133-1726.82 0 .03-320.607.03-641.214 0-961.822 575.61-.499 1151.21.62 1726.82 0Z"/>
    <path stroke="#00E0FF" stroke-miterlimit="10" stroke-opacity=".35" stroke-width=".5" d="M3477.26-58.342c-6.45 320.568.92 641.215 0 961.842M3500.03-58.361c-11.87 320.447 1.56 641.254 0 961.861M3522.69-58.38c-4.11 81.27-12.67 163.957-9.31 245.307 3.4 79.712 9.15 159.744 10.19 239.617.94 72.564-7.99 144.788-2.98 217.392 6.1 87.081 2.68 172.444 2.12 259.585M3545.42-58.38c-4.84 79.871-14.85 161.441-10.85 241.393 3.99 81.869 11.35 164.138 12.29 245.987.84 71.426-11.11 142.332-4.44 213.838 8.17 87.859 3.66 172.624 3.02 260.643M3568.14-58.4c-5.29 79.033-16.15 160.064-11.73 239.197 4.58 83.347 13.13 167.612 13.81 251.079.58 70.147-14.25 139.556-6 209.804 10.36 88.618 4.7 172.764 4 261.761M3590.87-58.4c-5.48 78.754-16.65 159.744-12 238.538 4.84 84.525 14.49 170.388 14.77 254.912.22 68.79-17.42 136.662-7.71 205.672 12.63 89.496 5.74 172.763 4.96 262.819M3613.57-58.4c-5.43 78.953-16.61 160.064-11.87 239.197 5.08 85.204 15.61 172.145 15.37 257.588-.2 67.452-20.61 133.786-9.35 201.438 7.23 43.491 15.01 82.927 13.11 127.496-2 45.527-6.8 90.675-7.24 136.302M3636.3-58.4c-5.22 79.552-15.99 161.162-11.32 240.834 5.12 85.504 16.33 173.223 15.47 258.847-.66 66.194-23.7 131.29-10.91 197.683 8.39 43.651 17.17 82.169 14.99 127.277-2.22 45.926-7.74 91.254-8.21 137.24M3659.02-58.38c-4.86 80.43-15.09 162.819-10.39 243.35 4.99 85.443 16.65 173.562 15.17 259.126-1.12 65.095-26.73 129.213-12.35 194.469 9.63 43.81 19.3 81.29 16.82 126.937-2.49 46.146-8.69 91.673-9.23 137.939"/>
    <path stroke="#00E0FF" stroke-miterlimit="10" stroke-opacity=".35" stroke-width=".5" d="M3681.74-58.38c-4.35 81.589-13.81 164.915-9.23 246.545 4.8 85.044 16.63 173.163 14.53 258.287-1.58 64.277-29.6 127.795-13.59 192.212 10.93 43.93 21.47 80.232 18.67 126.418-2.8 46.186-9.74 91.853-10.36 138.359"/>
    <path stroke="#00E0FF" stroke-miterlimit="10" stroke-opacity=".35" stroke-width=".5" d="M3704.47-58.38c-3.78 82.887-12.27 167.272-7.88 250.179 4.46 84.365 16.19 172.045 13.58 256.45-2 63.738-32.34 127.316-14.55 191.114 12.23 43.93 23.6 78.974 20.4 125.679-3.16 46.366-10.81 91.853-11.53 138.399"/>
    <path stroke="#00E0FF" stroke-miterlimit="10" stroke-opacity=".35" stroke-width=".5" d="M3727.19-58.361c-3.13 84.265-10.53 169.728-6.43 254.033 3.99 83.407 15.39 170.208 12.35 253.595-2.3 63.638-34.84 127.915-15.15 191.454 13.57 43.77 25.72 77.536 22.1 124.7-3.57 46.266-11.99 91.434-12.87 138"/>
    <path stroke="#00E0FF" stroke-miterlimit="10" stroke-opacity=".35" stroke-width=".5" d="M3749.86-58.361c-2.48 85.663-8.72 172.264-4.96 257.907 3.58 82.209 14.19 167.732 10.91 249.901-2.55 64.017-37.11 129.792-15.35 193.51 14.87 43.531 27.83 75.879 23.69 123.383-4 46.026-13.21 90.735-14.29 137.101"/>
    <path stroke="#00E0FF" stroke-miterlimit="10" stroke-opacity=".35" stroke-width=".5" d="M3772.64-58.342c-1.86 86.961-6.85 174.621-3.55 261.582 3.07 80.791 12.65 164.517 9.29 245.288-2.68 64.996-39.09 133.207-15.07 197.544 16.15 43.211 29.98 73.882 25.22 121.805-4.49 45.587-14.57 89.597-15.89 135.603"/>
    <path stroke="#00E0FF" stroke-miterlimit="10" stroke-opacity=".35" stroke-width=".5" d="M3795.37-58.342c-1.26 88.14-5.04 176.738-2.26 264.857 2.48 79.173 10.77 160.743 7.53 239.876-2.73 66.614-40.79 138.339-14.27 203.874 17.31 42.712 31.98 71.705 26.65 119.808-5.08 44.929-15.99 87.98-17.65 133.427"/>
    <path stroke="#00E0FF" stroke-miterlimit="10" stroke-opacity=".35" stroke-width=".5" d="M3818.09-58.342c-.74 89.098-3.36 178.435-1.2 267.572 1.88 77.317 8.68 156.43 5.7 233.627-2.66 68.969-42.11 145.407-12.83 212.72 18.3 42.092 34.19 69.209 27.98 117.332-5.72 44.05-17.63 85.863-19.61 130.531"/>
    <path stroke="#00E0FF" stroke-miterlimit="10" stroke-opacity=".35" stroke-width=".5" d="M3840.82-58.32c-.34 89.736-1.9 179.573-.4 269.309 1.23 75.02 7.41 151.917 3.77 226.837-3.47 71.606-42.77 155.232-10.73 224.381 19.17 41.314 36.36 66.434 29.12 114.437-6.46 42.912-19.37 83.148-21.76 126.818"/>
    <path stroke="#00E0FF" stroke-miterlimit="10" stroke-opacity=".35" stroke-width=".5" d="M3863.54-58.32c-.16 162.5 8.73 327.117 1.88 489.397-3.2 75.599-43.25 166.853-7.88 239.118 19.99 40.675 38.08 63.159 30.18 111.062-6.85 41.534-21.26 79.872-24.18 122.225"/>
    <path stroke="#00E0FF" stroke-miterlimit="10" stroke-opacity=".35" stroke-width=".5" d="M5181.38 884.63c-287.8-1.997-575.61.939-863.41 1.638-287.8.698-575.61-3.475-863.41-1.638M5181.38 865.702c-287.64-2.496-575.73 4.892-863.41 5.87-288.08.959-575.31-9.085-863.41-5.87M5181.38 846.912c-153.43-1.078-306.73 8.526-460.18 8.666-134.41.14-268.8 3.135-403.21 3.574-132.57.42-265.28 3.634-397.59-7.009-155.89-12.54-309.65-7.468-465.84-5.231"/>
    <path stroke="#00E0FF" stroke-miterlimit="10" stroke-opacity=".35" stroke-width=".5" d="M5181.38 828.061c-151.56-.439-302.65 13.978-454.27 14.517-136.37.519-272.67 5.411-409.04 5.711-131.11.28-262.66 2.995-393.15-11.981-157.69-18.111-312.07-10.842-470.34-8.227"/>
    <path stroke="#00E0FF" stroke-miterlimit="10" stroke-opacity=".35" stroke-width=".5" d="M5181.38 809.192c-149.5.519-297.92 20.108-447.51 21.226-138.61 1.039-277.09 7.988-415.72 8.147-129.55 0-260.1 1.857-388.55-17.671-159.4-24.242-314.55-14.517-475.02-11.702"/>
    <path stroke="#00E0FF" stroke-miterlimit="10" stroke-opacity=".35" stroke-width=".5" d="M5181.38 790.341c-147.34 1.598-292.78 26.737-440.32 28.435-140.98 1.597-281.81 10.942-422.83 10.743-128.11-.16-257.96.439-384.26-23.663-160.87-30.711-316.82-18.43-479.39-15.515"/>
    <path stroke="#00E0FF" stroke-miterlimit="10" stroke-opacity=".35" stroke-width=".5" d="M5181.38 771.491c-145.24 2.716-287.46 33.526-432.98 35.763-143.41 2.196-286.65 13.858-430.09 13.398-126.97-.399-256.5-.998-380.82-29.612-161.89-37.281-318.48-22.504-482.91-19.569"/>
    <path stroke="#00E0FF" stroke-miterlimit="10" stroke-opacity=".35" stroke-width=".5" d="M5181.38 752.623c-143.28 3.774-282.17 40.136-425.89 42.871-145.74 2.756-291.32 16.634-437.12 15.975-126.29-.559-256.01-2.157-378.7-35.104-162.47-43.67-319.16-26.637-485.07-23.742"/>
    <path stroke="#00E0FF" stroke-miterlimit="10" stroke-opacity=".35" stroke-width=".5" d="M5181.38 733.772c-141.56 4.572-277.19 46.206-419.33 49.361-147.9 3.254-295.66 19.109-443.7 18.35-126.23-.639-256.74-2.735-378.38-39.776-162.61-49.521-318.36-30.771-485.41-27.955"/>
    <path stroke="#00E0FF" stroke-miterlimit="10" stroke-opacity=".35" stroke-width=".5" d="M5181.38 714.922c-140.16 5.072-272.77 51.418-413.72 54.872-149.9 3.655-299.37 21.067-449.29 20.428-126.95-.539-258.94-2.456-380.4-43.271-74.65-25.08-146.72-40.475-225.85-41.933-85.94-1.637-171.68 8.506-257.58 9.984"/>
    <path stroke="#00E0FF" stroke-miterlimit="10" stroke-opacity=".35" stroke-width=".5" d="M5181.38 695.973c-75.61 2.795-146.16 20.686-219.37 37.759-63.4 14.796-125.03 19.629-189.87 21.306-151.34 3.894-302.29 22.364-453.69 22.065-128.39-.26-263.18-.659-385.24-45.168-74.11-27.037-145.04-44.549-224.38-46.386-84.89-1.877-169.51 9.106-254.25 10.424"/>
    <path stroke="#00E0FF" stroke-miterlimit="10" stroke-opacity=".35" stroke-width=".5" d="M5181.38 677.202c-75.43 2.516-144.86 21.366-217.51 39.497-63.12 15.775-124.2 20.367-189.05 21.965-152.36 3.973-304.17 22.883-456.65 23.202-131.07.3-269.12 2.397-393.35-45.087-73.55-28.115-142.26-48.423-221.67-50.58-82.96-2.176-165.67 9.585-248.57 10.983"/>
    <path stroke="#00E0FF" stroke-miterlimit="10" stroke-opacity=".35" stroke-width=".5" d="M5181.38 658.334c-75.79 2.376-145.32 21.545-218.21 40.056-62.96 15.974-123.68 20.347-188.37 21.964-152.48 3.994-304.25 22.624-456.83 23.403-134.67.679-276.27 4.672-404.5-42.812-72.79-26.956-138.89-49.64-217.43-52.396-80.55-2.815-160.95 8.706-241.48 9.745"/>
    <path stroke="#00E0FF" stroke-miterlimit="10" stroke-opacity=".35" stroke-width=".5" d="M5181.38 639.484c-78.43 3.294-152.02 21.825-228 39.497-63.36 14.716-124.62 19.688-189.47 21.525-149.4 4.193-298.12 22.245-447.7 22.165-136.97 0-279.19.419-411.5-39.577-71.95-21.725-137.3-43.67-213.19-47.504-78.95-3.994-158.03 4.113-237 3.894"/>
    <path stroke="#00E0FF" stroke-miterlimit="10" stroke-opacity=".35" stroke-width=".5" d="M5181.36 620.633c-148.54 7.148-289.8 54.273-438.86 58.526-143.56 4.093-286.44 20.827-430.21 19.968-137.76-.879-278.85-3.894-413.47-36.042-70.9-16.913-136.59-37.181-210.02-41.674-77.95-4.792-156.21.34-234.26-.718"/>
    <path stroke="#00E0FF" stroke-miterlimit="10" stroke-opacity=".35" stroke-width=".5" d="M5181.34 601.764c-157.89 7.987-310.35 50.599-468.7 54.912-135.53 3.694-270.3 18.53-406 16.753-137.25-1.797-275.97-8.267-411.34-32.268-69.95-12.4-136.35-30.272-207.68-35.084-77.55-5.232-155.43-2.716-233.08-4.313"/>
    <path stroke="#00E0FF" stroke-miterlimit="10" stroke-opacity=".35" stroke-width=".5" d="M5181.3 582.914c-169.48 8.486-335.11 46.186-504.96 50.379-125.77 3.135-250.72 15.556-376.7 12.96-135.53-2.796-271.17-12.66-405.72-28.415-69.09-8.087-136.41-23.003-206.1-27.955-77.67-5.332-155.55-5.152-233.28-6.969"/>
    <path stroke="#00E0FF" stroke-miterlimit="10" stroke-opacity=".35" stroke-width=".5" d="M5181.26 564.064c-182.62 8.826-362.63 41.514-545.63 45.268-114.92 2.356-228.86 11.981-343.94 8.706-279.93-8.107-557.28-47.324-837.23-53.914"/>
    <path stroke="#00E0FF" stroke-miterlimit="10" stroke-opacity=".35" stroke-width=".5" d="M5181.2 545.194c-299.56 13.838-597.25 55.551-897.79 44.089-276.47-10.563-552.16-37.939-828.87-44.109"/>
    <path stroke="#00E0FF" stroke-miterlimit="10" stroke-opacity=".35" stroke-width=".5" d="M5181.16 526.344c-301.95 13.359-603.59 48.682-906.14 34.105-125.66-5.99-250.97-25.738-376.92-17.731-147.48 9.485-296.04-13.499-443.56-16.474"/>
    <path stroke="#00E0FF" stroke-miterlimit="10" stroke-opacity=".35" stroke-width=".5" d="M5181.12 507.495c-304.45 13.079-609.34 42.472-914.1 24.561-121.91-7.169-243.83-30.172-365.87-14.877-148.71 18.631-297.61-7.208-446.61-9.724"/>
    <path stroke="#00E0FF" stroke-miterlimit="10" stroke-opacity=".35" stroke-width=".5" d="M5181.08 488.624c-306.85 13.139-614.4 37.321-921.25 15.975-118.52-8.267-236.96-34.725-355.42-12.62-150.3 28.075-298.63-1.098-449.87-3.355"/>
    <path stroke="#00E0FF" stroke-miterlimit="10" stroke-opacity=".35" stroke-width=".5" d="M5181.06 469.775c-308.93 13.598-618.68 33.486-927.17 8.726-115.92-9.306-230.84-39.557-346.36-11.043-152.07 37.56-298.97 4.533-452.97 2.277"/>
    <path stroke="#00E0FF" stroke-miterlimit="10" stroke-opacity=".35" stroke-width=".5" d="M5181.04 450.925c-310.35 14.597-621.97 31.27-931.36 3.395-114.3-10.304-226.09-45.288-339.51-10.304-153.72 47.404-298.7 9.465-455.61 6.869"/>
    <path stroke="#00E0FF" stroke-miterlimit="10" stroke-opacity=".35" stroke-width=".5" d="M5181.02 432.075c-259.28 13.559-519.38 17.972-779.03 16.434-51.96-.299-102.75-10.882-154.55-15.974-114.16-11.282-222.67-51.378-335.65-10.544-69.61 25.18-130.31 37.74-205.02 33.387-84.44-5.012-167.49-21.505-252.21-23.363"/>
    <path stroke="#00E0FF" stroke-miterlimit="10" stroke-opacity=".35" stroke-width=".5" d="M5181.02 413.204c-259.36 13.978-519.36 16.634-779.09 16.494-51.96 0-102.99-11.402-154.77-16.713-114.58-11.761-221.55-52.117-334.99-10.284-69.95 25.819-129.91 38.798-205.38 33.806-84.5-5.571-167.31-22.943-252.23-23.362"/>
    <path stroke="#00E0FF" stroke-miterlimit="10" stroke-opacity=".35" stroke-width=".5" d="M5181.04 394.455c-254.97 12.939-510.59 17.013-765.88 16.753-56.22 0-111.92-12.919-167.88-18.67-114.5-11.741-221.61-45.927-335.13-7.668-70.52 23.802-131.65 34.425-206.58 28.854-84.06-6.37-166.37-22.644-251.03-19.449"/>
    <path stroke="#00E0FF" stroke-miterlimit="10" stroke-opacity=".35" stroke-width=".5" d="M5181.08 375.485c-247.29 11.981-495.48 18.531-743.07 17.073-63.74-.379-126.8-15.575-190.19-21.965-114.56-11.581-222.15-38.898-335.67-3.794-70.91 21.965-133.33 30.132-207.86 23.962-83.62-6.989-165.49-22.264-249.75-15.375"/>
    <path stroke="#00E0FF" stroke-miterlimit="10" stroke-opacity=".35" stroke-width=".5" d="M5181.1 356.616c-237.04 10.982-475.49 20.527-712.87 17.372-73.65-.978-146.3-19.089-219.57-26.358-114.7-11.381-223.03-31.07-336.51 1.059-71.25 20.167-134.95 25.958-209.04 19.129-83.32-7.608-164.81-21.945-248.59-11.302"/>
    <path stroke="#00E0FF" stroke-miterlimit="10" stroke-opacity=".35" stroke-width=".5" d="M5181.14 337.766c-225.09 9.984-452.11 22.484-677.54 17.651-85.28-1.817-169.04-23.322-253.82-31.509-114.99-11.103-224.11-22.724-337.61 6.649-71.59 18.53-136.57 21.705-210.28 14.357-83-8.267-164.21-21.745-247.37-7.288"/>
    <path stroke="#00E0FF" stroke-miterlimit="10" stroke-opacity=".35" stroke-width=".5" d="M5181.2 318.895c-212.17 9.145-426.79 24.201-639.24 17.971-97.94-2.875-193.61-28.115-291.02-37.181-115.37-10.762-225.09-13.977-338.73 12.72-153.42 35.943-305.51-27.456-457.69 6.35"/>
    <path stroke="#00E0FF" stroke-miterlimit="10" stroke-opacity=".35" stroke-width=".5" d="M5181.24 300.026c-199.06 8.247-400.89 25.539-600.21 18.231-110.66-3.994-218.63-33.107-328.81-43.071-115.75-10.483-226.23-5.112-339.99 19.029-152.88 32.349-307.21-35.343-457.73 5.651"/>
    <path stroke="#00E0FF" stroke-miterlimit="10" stroke-opacity=".35" stroke-width=".5" d="M5181.28 281.176c-186.47 7.308-375.98 26.777-562.65 18.47-123-5.471-242.68-38.139-365.12-48.961-116.16-10.204-227.16 3.614-341.18 25.299-152.48 29.054-308.95-43.271-457.83 4.992"/>
    <path stroke="#00E0FF" stroke-miterlimit="10" stroke-opacity=".35" stroke-width=".5" d="M5181.32 262.306c-177.04 6.349-357.31 28.314-534.47 18.33-132.55-7.448-261.35-43.33-393.54-54.253-114.4-9.445-223.34 11.861-335.57 30.571-153.45 25.679-315.22-50.938-463.26 5.132"/>
    <path stroke="#00E0FF" stroke-miterlimit="10" stroke-opacity=".35" stroke-width=".5" d="M5181.36 243.436c-167.88 5.391-338.79 28.714-506.81 18.47-141.59-8.606-279.03-47.763-420.28-59.105-114.94-9.245-223.84 19.788-336.49 36.182-153.05 22.244-317.06-59.325-463.3 4.233"/>
    <path stroke="#00E0FF" stroke-miterlimit="10" stroke-opacity=".35" stroke-width=".5" d="M5181.38 224.586c-161.63 4.273-325.54 28.954-487.19 18.57-147.9-9.505-291.5-51.398-439.12-63.079-115.5-9.145-223.84 27.117-337.29 40.995-152.63 18.67-318.92-67.892-463.32 3.254"/>
    <path stroke="#00E0FF" stroke-miterlimit="10" stroke-opacity=".35" stroke-width=".5" d="M5181.4 205.716c-158.67 3.075-319.14 29.153-477.79 18.65-150.98-9.984-297.34-53.914-448-65.895-115.92-9.225-223.85 33.687-337.77 44.729-152.27 14.816-320.98-76.318-463.38 2.236"/>
    <path stroke="#00E0FF" stroke-miterlimit="10" stroke-opacity=".35" stroke-width=".5" d="M5181.38 186.788c-157.89 1.737-316.76 27.955-474.72 19.069-151.99-8.546-298.91-54.952-450.35-67.392-118.28-9.724-227.08 40.435-343.76 47.364-150.2 8.946-319.17-84.904-458.09.739"/>
    <path stroke="#00E0FF" stroke-miterlimit="10" stroke-opacity=".35" stroke-width=".5" d="M5181.38 167.998c-160.79 3.075-324.1 33.346-484.77 22.204-148.54-10.283-291.8-57.588-439.86-70.048-118.02-9.984-227.84 40.855-344.36 47.045-150.54 7.967-317.55-82.089-457.93.519"/>
    <path stroke="#00E0FF" stroke-miterlimit="10" stroke-opacity=".35" stroke-width=".5" d="M5181.36 149.148c-162.81 5.511-332.11 41.693-494.7 26.338-144.08-13.598-283.65-60.384-427.71-72.424-116.32-9.745-226.63 37.939-341.57 44.908-152.75 9.385-318.62-75.34-462.92.878"/>
    <path stroke="#00E0FF" stroke-miterlimit="10" stroke-opacity=".35" stroke-width=".5" d="M5181.36 130.298c-89.34 4.353-178.28 13.159-267.32 21.386-74.83 6.929-151.57 17.631-226.58 9.684-142.7-15.136-281.47-61.761-424.23-73.882-116.96-9.984-229.84 35.004-345.77 41.654-153.37 8.806-316.5-68.151-462.98.898"/>
    <path stroke="#00E0FF" stroke-miterlimit="10" stroke-opacity=".35" stroke-width=".5" d="M5181.38 111.447c-88.44 5.611-176.38 15.176-264.52 24.261-74.23 7.628-150.46 19.769-224.92 11.282-142.11-16.114-280.89-61.92-423.2-74.022-118.07-9.984-233.84 31.47-351.14 37.461-153.89 7.987-314.76-61.103-463.12.818"/>
    <path stroke="#00E0FF" stroke-miterlimit="10" stroke-opacity=".35" stroke-width=".5" d="M5181.38 92.598c-87.94 6.789-175.66 17.152-263.38 27.017-70.13 7.987-142.88 21.026-213.33 13.079-144.09-16.274-284.95-60.563-429.17-73.063-121.56-10.524-242.12 27.675-363.15 32.248-152.5 5.75-309.37-53.554-457.85.5"/>
    <path stroke="#00E0FF" stroke-miterlimit="10" stroke-opacity=".35" stroke-width=".5" d="M5181.38 73.728c-86.22 7.647-172.08 18.43-258.02 28.734-69.16 8.306-140.77 22.084-210.28 14.177-144.3-16.394-285.98-58.127-430.55-70.347-123.43-10.444-246.87 23.222-370.02 26.897-152.66 4.552-308.33-46.546-458.01.339"/>
    <path stroke="#00E0FF" stroke-miterlimit="10" stroke-opacity=".35" stroke-width=".5" d="M5181.4 54.877c-84.46 8.107-168.4 19.01-252.57 29.473-68.19 8.487-138.5 22.384-207.14 14.797-144.54-15.975-287.02-54.354-431.86-66.055-125.51-10.044-251.73 18.69-377.12 21.406-152.86 3.315-307.59-39.597-458.21.2"/>
    <path stroke="#00E0FF" stroke-miterlimit="10" stroke-opacity=".35" stroke-width=".5" d="M5181.4 36.029c-82.72 8.287-165.19 18.81-247.71 28.953-67.39 8.387-136.55 21.965-204.34 14.857-144.54-14.856-287.54-49.182-432.37-60.044-127.71-9.585-256.38 14.377-384.07 15.974-152.84 1.997-307.07-32.747-458.39 0"/>
    <path stroke="#00E0FF" stroke-miterlimit="10" stroke-opacity=".35" stroke-width=".5" d="M5181.42 17.158c-81.54 7.987-162.89 17.652-244.25 27.137-66.88 7.767-135.03 20.227-202.3 13.977-144.03-13.259-286.97-42.532-431.23-52.196-129.91-8.686-260.66 10.223-390.55 11.022-152.88.979-306.65-25.998-458.57-.04"/>
    <path stroke="#00E0FF" stroke-miterlimit="10" stroke-opacity=".35" stroke-width=".5" d="M5181.42-1.712c-81.06 7.028-161.89 15.375-242.91 23.562-66.74 6.73-134.37 17.492-201.33 12.3-142.82-11.102-284.86-34.445-427.7-42.452-131.77-7.408-264.38 6.51-396.23 6.65-152.9.18-306.33-19.41-458.67-.16"/>
    <path stroke="#00E0FF" stroke-miterlimit="10" stroke-opacity=".35" stroke-width=".5" d="M5181.42-20.58c-146.66 9.824-299.74 36.062-446.6 27.655-140.36-8.107-280.36-24.76-420.83-30.67-133.39-5.612-267.3 3.473-400.74 3.194-152.9-.3-306.06-12.9-458.71-.18"/>
  </g>
  <defs>
    <clipPath id="a">
      <use xlink:href="#reuse-0"/>
    </clipPath>
  </defs>
</svg>
